<?xml version="1.0" encoding="utf-8"?>
<!-- Generator: Adobe Illustrator 21.1.0, SVG Export Plug-In . SVG Version: 6.00 Build 0)  -->
<svg version="1.1" id="Layer_1" xmlns="http://www.w3.org/2000/svg" xmlns:xlink="http://www.w3.org/1999/xlink" x="0px" y="0px"
	 viewBox="0 0 583 532" style="enable-background:new 0 0 583 532;" xml:space="preserve">
<style type="text/css">
	.st0{opacity:0.2;fill:#F5F5F7;enable-background:new    ;}
	.st1{fill:#854399;}
	.st2{opacity:0.5;filter:url(#filter-1);enable-background:new    ;}
	.st3{fill:#EFC09B;}
	.st4{opacity:0.1;fill:#FFFFFF;enable-background:new    ;}
	.st5{fill:#C5936C;}
	.st6{fill:#FFFFFF;}
	.st7{font-family:'OpenSans-Regular';}
	.st8{font-size:17px;}
	.st9{filter:url(#filter-3);}
	.st10{fill:none;stroke:#FFFFFF;}
	.st11{filter:url(#filter-5);}
</style>
<filter  filterUnits="objectBoundingBox" height="180.4%" id="filter-5" width="162.1%" x="-31.1%" y="-30.4%">
	<feOffset  dx="0" dy="10" in="SourceAlpha" result="shadowOffsetOuter1"></feOffset>
	<feGaussianBlur  in="shadowOffsetOuter1" result="shadowBlurOuter1" stdDeviation="12"></feGaussianBlur>
	<feColorMatrix  in="shadowBlurOuter1" type="matrix" values="0 0 0 0 0   0 0 0 0 0   0 0 0 0 0  0 0 0 0.258322011 0">
		</feColorMatrix>
</filter>
<filter  filterUnits="objectBoundingBox" height="180.4%" id="filter-3" width="162.1%" x="-31.1%" y="-30.4%">
	<feOffset  dx="0" dy="10" in="SourceAlpha" result="shadowOffsetOuter1"></feOffset>
	<feGaussianBlur  in="shadowOffsetOuter1" result="shadowBlurOuter1" stdDeviation="12"></feGaussianBlur>
	<feColorMatrix  in="shadowBlurOuter1" type="matrix" values="0 0 0 0 0   0 0 0 0 0   0 0 0 0 0  0 0 0 0.258322011 0">
		</feColorMatrix>
</filter>
<filter  filterUnits="objectBoundingBox" height="146.2%" id="filter-1" width="146.2%" x="-23.1%" y="-23.1%">
	<feGaussianBlur  in="SourceGraphic" stdDeviation="29"></feGaussianBlur>
</filter>
<g>
	<g id="Hero">
		<g id="Image" transform="translate(741.000000, 150.000000)">
			<g id="Small" transform="translate(87.000000, 0.000000)">
				<circle id="Oval-8" class="st0" cx="-506" cy="107" r="211"/>
				<circle id="Oval-8_1_" class="st1" cx="-506" cy="107" r="180"/>
			</g>
			<g id="Big" transform="translate(88.000000, 1.000000)">
				<g id="Combined-Shape" class="st2">
					<path d="M-694.5,107.7c0.4,103.8,84.6,187.8,188.5,187.8c104.1,0,188.5-84.4,188.5-188.5c0-103.9-84-188.1-187.8-188.5v189.2
						H-694.5L-694.5,107.7z"/>
				</g>
				<path id="Combined-Shape_1_" class="st3" d="M-717,107.8c0.4,116.2,94.7,210.2,211,210.2c116.5,0,211-94.5,211-211
					c0-116.3-94.1-210.6-210.2-211v211.8H-717L-717,107.8z"/>
				<path id="Combined-Shape_2_" class="st4" d="M-505.2-74v-30C-389.1-103.6-295-9.3-295,107c0,116.5-94.5,211-211,211
					c-116.3,0-210.6-94.1-211-210.2h30c1,98.6,81.2,178.2,180,178.2c99.4,0,180-80.6,180-180C-327,7.2-406.6-73-505.2-74z"/>
			</g>
			<circle id="Oval-8_2_" class="st5" cx="-418" cy="108" r="70"/>
			<text transform="matrix(1 0 0 1 -390.5989 93)" class="st6 st7 st8"> </text>
			<text transform="matrix(1 0 0 1 -390.6985 115)" class="st6 st7 st8"> </text>
			<g id="_x37_5_x25_" transform="translate(389.000000, 270.000000)">
				<g id="Rectangle-21">
					<g class="st9">
						<path id="path-2_2_" d="M-711-24h120c3.3,0,6,2.7,6,6v90c0,3.3-2.7,6-6,6h-120c-3.3,0-6-2.7-6-6v-90
							C-717-21.3-714.3-24-711-24z"/>
					</g>
					<g>
						<path id="path-2_1_" class="st6" d="M-711-24h120c3.3,0,6,2.7,6,6v90c0,3.3-2.7,6-6,6h-120c-3.3,0-6-2.7-6-6v-90
							C-717-21.3-714.3-24-711-24z"/>
					</g>
				</g>
				<circle id="Oval-9" class="st6" cx="-705" cy="-100" r="4"/>
				<polyline id="Path-8" class="st10" points="-705,-100 -674.5,-69.5 -674.5,-14 				"/>
			</g>
			<g id="Rectangle-21_1_">
				<g class="st11">
					<path id="path-4_2_" d="M-711-64h120c3.3,0,6,2.7,6,6v90c0,3.3-2.7,6-6,6h-120c-3.3,0-6-2.7-6-6v-90C-717-61.3-714.3-64-711-64
						z"/>
				</g>
				<g>
					<path id="path-4_1_" class="st6" d="M-711-64h120c3.3,0,6,2.7,6,6v90c0,3.3-2.7,6-6,6h-120c-3.3,0-6-2.7-6-6v-90
						C-717-61.3-714.3-64-711-64z"/>
				</g>
			</g>
			<circle id="Oval-9_1_" class="st6" cx="-505" cy="34" r="4"/>
			<polyline id="Path-9" class="st10" points="-505,34 -537.5,1.5 -598.2,1.5 			"/>
		</g>
	</g>
	<g>
		<path class="st6" d="M301.3,232.9c-1.3,0-2.4,0.4-3.2,1.3c-0.8,0.9-1.2,2.1-1.2,3.6c0,1.6,0.4,2.8,1.1,3.7
			c0.7,0.9,1.8,1.3,3.2,1.3c0.8,0,1.8-0.2,2.9-0.5v1.2c-0.8,0.3-1.9,0.5-3.1,0.5c-1.8,0-3.2-0.5-4.1-1.6c-1-1.1-1.5-2.6-1.5-4.6
			c0-1.3,0.2-2.3,0.7-3.3s1.1-1.7,2-2.2s1.9-0.8,3.1-0.8c1.3,0,2.4,0.2,3.3,0.7l-0.6,1.2C303.2,233.1,302.2,232.9,301.3,232.9z"/>
		<path class="st6" d="M308,244h-1.4v-12.9h1.4V244z"/>
		<path class="st6" d="M310.8,232.4c0-0.3,0.1-0.5,0.2-0.7c0.2-0.1,0.3-0.2,0.6-0.2c0.2,0,0.4,0.1,0.6,0.2c0.2,0.1,0.2,0.4,0.2,0.7
			s-0.1,0.5-0.2,0.7c-0.2,0.2-0.4,0.2-0.6,0.2c-0.2,0-0.4-0.1-0.6-0.2C310.9,233,310.8,232.7,310.8,232.4z M312.3,244h-1.4v-9.1h1.4
			V244z"/>
		<path class="st6" d="M319.1,244.1c-1.3,0-2.4-0.4-3.2-1.2s-1.2-2-1.2-3.4c0-1.5,0.4-2.6,1.1-3.5c0.7-0.9,1.7-1.3,2.9-1.3
			c1.1,0,2,0.4,2.7,1.1c0.7,0.7,1,1.7,1,3v0.9h-6.3c0,1.1,0.3,1.9,0.8,2.4s1.2,0.8,2.2,0.8c1,0,1.9-0.2,2.9-0.6v1.2
			c-0.5,0.2-0.9,0.4-1.4,0.5C320.2,244.1,319.7,244.1,319.1,244.1z M318.7,235.9c-0.7,0-1.3,0.2-1.7,0.7s-0.7,1.1-0.8,2h4.8
			c0-0.9-0.2-1.5-0.6-2C320,236.1,319.4,235.9,318.7,235.9z"/>
		<path class="st6" d="M331,244v-5.9c0-0.7-0.2-1.3-0.5-1.7c-0.3-0.4-0.9-0.5-1.6-0.5c-1,0-1.6,0.3-2.1,0.8s-0.7,1.4-0.7,2.5v4.8
			h-1.4v-9.1h1.1l0.2,1.2h0.1c0.3-0.4,0.7-0.8,1.2-1c0.5-0.2,1.1-0.4,1.7-0.4c1.1,0,1.9,0.3,2.5,0.8c0.6,0.5,0.8,1.4,0.8,2.5v5.9
			H331z"/>
		<path class="st6" d="M338.2,243c0.2,0,0.5,0,0.7-0.1c0.2,0,0.4-0.1,0.5-0.1v1.1c-0.1,0.1-0.4,0.1-0.7,0.2c-0.3,0-0.6,0.1-0.8,0.1
			c-1.8,0-2.6-0.9-2.6-2.8v-5.4H334v-0.7l1.3-0.6l0.6-1.9h0.8v2.1h2.6v1.1h-2.6v5.4c0,0.5,0.1,1,0.4,1.3
			C337.3,242.9,337.7,243,338.2,243z"/>
		<path class="st6" d="M342.3,231.8l0.1,0.2c-0.1,0.6-0.4,1.2-0.6,1.9c-0.3,0.7-0.6,1.4-0.8,2h-1c0.4-1.6,0.7-3,0.8-4.2H342.3z"/>
		<path class="st6" d="M350,241.5c0,0.8-0.3,1.5-0.9,2s-1.5,0.7-2.7,0.7c-1.2,0-2.1-0.2-2.8-0.6v-1.3c0.4,0.2,0.9,0.4,1.4,0.5
			s1,0.2,1.4,0.2c0.7,0,1.3-0.1,1.7-0.3c0.4-0.2,0.6-0.6,0.6-1.1c0-0.4-0.2-0.7-0.5-0.9c-0.3-0.3-0.9-0.5-1.8-0.9
			c-0.8-0.3-1.4-0.6-1.8-0.8c-0.4-0.2-0.6-0.5-0.8-0.8c-0.2-0.3-0.3-0.7-0.3-1.1c0-0.7,0.3-1.3,0.9-1.8c0.6-0.4,1.4-0.6,2.5-0.6
			c1,0,1.9,0.2,2.9,0.6l-0.5,1.1c-0.9-0.4-1.7-0.6-2.5-0.6c-0.7,0-1.1,0.1-1.5,0.3s-0.5,0.5-0.5,0.8c0,0.2,0.1,0.5,0.2,0.6
			c0.1,0.2,0.3,0.3,0.6,0.5c0.3,0.2,0.8,0.4,1.6,0.7c1.1,0.4,1.8,0.8,2.2,1.2S350,240.9,350,241.5z"/>
		<path class="st6" d="M303.1,261.1c0,1.1-0.4,1.9-1.2,2.5s-1.8,0.9-3.2,0.9c-1.4,0-2.5-0.2-3.3-0.6v-1.4c0.5,0.2,1,0.4,1.6,0.5
			s1.2,0.2,1.7,0.2c0.9,0,1.6-0.2,2.1-0.5c0.5-0.4,0.7-0.9,0.7-1.5c0-0.4-0.1-0.8-0.3-1c-0.2-0.3-0.5-0.5-0.8-0.7s-1-0.5-1.8-0.8
			c-1.1-0.4-1.9-0.9-2.4-1.4s-0.7-1.3-0.7-2.2c0-0.9,0.4-1.7,1.1-2.2s1.6-0.8,2.8-0.8c1.2,0,2.3,0.2,3.3,0.7l-0.4,1.2
			c-1-0.4-2-0.6-2.9-0.6c-0.7,0-1.3,0.2-1.8,0.5c-0.4,0.3-0.6,0.8-0.6,1.3c0,0.4,0.1,0.8,0.2,1c0.2,0.3,0.4,0.5,0.8,0.7
			c0.4,0.2,0.9,0.5,1.7,0.7c1.3,0.5,2.1,0.9,2.6,1.5S303.1,260.3,303.1,261.1z"/>
		<path class="st6" d="M309.6,264.5c-0.6,0-1.1-0.1-1.6-0.3c-0.5-0.2-0.9-0.6-1.2-1h-0.1c0.1,0.5,0.1,1,0.1,1.5v3.7h-1.4v-13.2h1.1
			l0.2,1.2h0.1c0.4-0.5,0.8-0.9,1.2-1.1c0.5-0.2,1-0.3,1.6-0.3c1.2,0,2.1,0.4,2.8,1.2c0.7,0.8,1,2,1,3.5c0,1.5-0.3,2.7-1,3.5
			C311.7,264.1,310.8,264.5,309.6,264.5z M309.4,256.3c-0.9,0-1.6,0.3-2,0.8c-0.4,0.5-0.6,1.3-0.6,2.5v0.3c0,1.3,0.2,2.2,0.6,2.7
			c0.4,0.6,1.1,0.8,2,0.8c0.8,0,1.4-0.3,1.8-1s0.7-1.5,0.7-2.6c0-1.1-0.2-2-0.7-2.6C310.8,256.6,310.2,256.3,309.4,256.3z"/>
		<path class="st6" d="M319.9,255.1c0.4,0,0.8,0,1.1,0.1l-0.2,1.3c-0.4-0.1-0.7-0.1-1-0.1c-0.7,0-1.4,0.3-1.9,0.9
			c-0.5,0.6-0.8,1.3-0.8,2.2v4.9h-1.4v-9.1h1.1l0.2,1.7h0.1c0.3-0.6,0.7-1,1.2-1.4C318.8,255.3,319.4,255.1,319.9,255.1z"/>
		<path class="st6" d="M326.6,264.5c-1.3,0-2.4-0.4-3.2-1.2s-1.2-2-1.2-3.4c0-1.5,0.4-2.6,1.1-3.5c0.7-0.9,1.7-1.3,2.9-1.3
			c1.1,0,2,0.4,2.7,1.1c0.7,0.7,1,1.7,1,3v0.9h-6.3c0,1.1,0.3,1.9,0.8,2.4s1.2,0.8,2.2,0.8c1,0,1.9-0.2,2.9-0.6v1.2
			c-0.5,0.2-0.9,0.4-1.4,0.5C327.7,264.5,327.2,264.5,326.6,264.5z M326.2,256.3c-0.7,0-1.3,0.2-1.7,0.7s-0.7,1.1-0.8,2h4.8
			c0-0.9-0.2-1.5-0.6-2C327.5,256.5,326.9,256.3,326.2,256.3z"/>
		<path class="st6" d="M337.8,264.4l-0.3-1.3h-0.1c-0.5,0.6-0.9,1-1.4,1.2c-0.5,0.2-1,0.3-1.7,0.3c-0.9,0-1.6-0.2-2.1-0.7
			s-0.8-1.1-0.8-2c0-1.8,1.5-2.8,4.4-2.9l1.5,0v-0.6c0-0.7-0.2-1.2-0.5-1.6c-0.3-0.3-0.8-0.5-1.5-0.5c-0.8,0-1.6,0.2-2.6,0.7
			l-0.4-1.1c0.4-0.2,0.9-0.4,1.5-0.6s1.1-0.2,1.6-0.2c1.1,0,1.9,0.2,2.4,0.7c0.5,0.5,0.8,1.3,0.8,2.3v6.2H337.8z M334.7,263.4
			c0.9,0,1.5-0.2,2-0.7c0.5-0.5,0.7-1.1,0.7-2v-0.8l-1.4,0.1c-1.1,0-1.9,0.2-2.4,0.5c-0.5,0.3-0.7,0.8-0.7,1.4
			c0,0.5,0.2,0.9,0.5,1.1S334.2,263.4,334.7,263.4z"/>
		<path class="st6" d="M347.9,263.2L347.9,263.2c-0.7,0.9-1.7,1.4-2.9,1.4c-1.2,0-2.1-0.4-2.8-1.2s-1-2-1-3.5s0.3-2.7,1-3.5
			s1.6-1.2,2.8-1.2c1.2,0,2.2,0.4,2.8,1.3h0.1l-0.1-0.7l0-0.6v-3.7h1.4v12.9h-1.1L347.9,263.2z M345.1,263.4c0.9,0,1.6-0.3,2-0.8
			c0.4-0.5,0.6-1.3,0.6-2.5v-0.3c0-1.3-0.2-2.2-0.6-2.8c-0.4-0.6-1.1-0.8-2.1-0.8c-0.8,0-1.4,0.3-1.9,0.9c-0.4,0.6-0.6,1.5-0.6,2.7
			c0,1.2,0.2,2,0.6,2.6S344.3,263.4,345.1,263.4z"/>
		<path class="st6" d="M291.4,279.7v5H290v-12.1h3.3c1.5,0,2.6,0.3,3.3,0.9s1.1,1.4,1.1,2.6c0,1.6-0.8,2.7-2.4,3.3l3.3,5.5h-1.7
			l-2.9-5H291.4z M291.4,278.5h1.9c1,0,1.7-0.2,2.2-0.6c0.5-0.4,0.7-1,0.7-1.8c0-0.8-0.2-1.4-0.7-1.7c-0.5-0.4-1.2-0.5-2.3-0.5h-1.8
			V278.5z"/>
		<path class="st6" d="M304.2,284.9c-1.3,0-2.4-0.4-3.2-1.2c-0.8-0.8-1.2-2-1.2-3.4c0-1.5,0.4-2.6,1.1-3.5c0.7-0.9,1.7-1.3,2.9-1.3
			c1.1,0,2,0.4,2.7,1.1s1,1.7,1,3v0.9h-6.3c0,1.1,0.3,1.9,0.8,2.4s1.2,0.8,2.2,0.8c1,0,1.9-0.2,2.9-0.6v1.2
			c-0.5,0.2-0.9,0.4-1.4,0.5S304.8,284.9,304.2,284.9z M303.8,276.7c-0.7,0-1.3,0.2-1.7,0.7s-0.7,1.1-0.8,2h4.8c0-0.9-0.2-1.5-0.6-2
			C305.1,276.9,304.5,276.7,303.8,276.7z"/>
		<path class="st6" d="M311.9,284.8l-3.5-9.1h1.5l2,5.4c0.4,1.3,0.7,2.1,0.8,2.5h0.1c0.1-0.3,0.3-0.9,0.6-1.8c0.3-0.9,1-2.9,2.2-6
			h1.5l-3.5,9.1H311.9z"/>
		<path class="st6" d="M322.2,284.9c-1.3,0-2.4-0.4-3.2-1.2c-0.8-0.8-1.2-2-1.2-3.4c0-1.5,0.4-2.6,1.1-3.5c0.7-0.9,1.7-1.3,2.9-1.3
			c1.1,0,2,0.4,2.7,1.1s1,1.7,1,3v0.9h-6.3c0,1.1,0.3,1.9,0.8,2.4s1.2,0.8,2.2,0.8c1,0,1.9-0.2,2.9-0.6v1.2
			c-0.5,0.2-0.9,0.4-1.4,0.5S322.8,284.9,322.2,284.9z M321.9,276.7c-0.7,0-1.3,0.2-1.7,0.7s-0.7,1.1-0.8,2h4.8c0-0.9-0.2-1.5-0.6-2
			C323.1,276.9,322.6,276.7,321.9,276.7z"/>
		<path class="st6" d="M334.1,284.8v-5.9c0-0.7-0.2-1.3-0.5-1.7c-0.3-0.4-0.9-0.5-1.6-0.5c-1,0-1.6,0.3-2.1,0.8
			c-0.4,0.5-0.7,1.4-0.7,2.5v4.8h-1.4v-9.1h1.1l0.2,1.2h0.1c0.3-0.4,0.7-0.8,1.2-1c0.5-0.2,1.1-0.4,1.7-0.4c1.1,0,1.9,0.3,2.5,0.8
			c0.6,0.5,0.8,1.4,0.8,2.5v5.9H334.1z"/>
		<path class="st6" d="M339.6,275.7v5.9c0,0.7,0.2,1.3,0.5,1.7c0.3,0.4,0.9,0.5,1.6,0.5c1,0,1.6-0.3,2.1-0.8
			c0.4-0.5,0.7-1.4,0.7-2.5v-4.8h1.4v9.1h-1.1l-0.2-1.2h-0.1c-0.3,0.4-0.7,0.8-1.2,1s-1.1,0.4-1.7,0.4c-1.1,0-1.9-0.3-2.5-0.8
			s-0.8-1.4-0.8-2.5v-6H339.6z"/>
		<path class="st6" d="M352.6,284.9c-1.3,0-2.4-0.4-3.2-1.2c-0.8-0.8-1.2-2-1.2-3.4c0-1.5,0.4-2.6,1.1-3.5c0.7-0.9,1.7-1.3,2.9-1.3
			c1.1,0,2,0.4,2.7,1.1s1,1.7,1,3v0.9h-6.3c0,1.1,0.3,1.9,0.8,2.4s1.2,0.8,2.2,0.8c1,0,1.9-0.2,2.9-0.6v1.2
			c-0.5,0.2-0.9,0.4-1.4,0.5S353.2,284.9,352.6,284.9z M352.3,276.7c-0.7,0-1.3,0.2-1.7,0.7s-0.7,1.1-0.8,2h4.8c0-0.9-0.2-1.5-0.6-2
			C353.5,276.9,353,276.7,352.3,276.7z"/>
	</g>
	<g>
		<g>
			<path class="st1" d="M443.4,451.2l10.7-23.4H440v-5.1h20.5v3.8l-10.8,24.7H443.4z"/>
			<path class="st1" d="M473.8,432.9c2.8,0,5,0.8,6.6,2.3c1.6,1.5,2.5,3.7,2.5,6.4c0,3.2-1,5.6-2.9,7.4s-4.8,2.6-8.4,2.6
				c-3.2,0-5.7-0.5-7.7-1.5v-5.2c1,0.5,2.2,1,3.6,1.3c1.4,0.3,2.7,0.5,3.9,0.5c3.7,0,5.5-1.5,5.5-4.5c0-2.9-1.9-4.3-5.7-4.3
				c-0.7,0-1.5,0.1-2.3,0.2s-1.5,0.3-2,0.4l-2.4-1.3l1.1-14.6h15.5v5.1h-10.2l-0.5,5.6l0.7-0.1C471.6,433,472.6,432.9,473.8,432.9z"
				/>
			<path class="st1" d="M499.4,431.1c0,3-0.6,5.2-1.7,6.7s-2.9,2.3-5.1,2.3c-2.1,0-3.8-0.8-5-2.3s-1.8-3.8-1.8-6.7
				c0-6,2.2-8.9,6.7-8.9c2.2,0,3.9,0.8,5.1,2.3S499.4,428.3,499.4,431.1z M490.8,431.2c0,1.7,0.1,2.9,0.4,3.7
				c0.3,0.8,0.8,1.2,1.4,1.2c1.2,0,1.9-1.6,1.9-4.9c0-3.3-0.6-4.9-1.9-4.9c-0.7,0-1.1,0.4-1.4,1.2S490.8,429.5,490.8,431.2z
				 M512.9,422.6L497,451.2h-4.7l15.8-28.6H512.9z M519.4,442.5c0,3-0.6,5.2-1.7,6.7s-2.9,2.3-5.1,2.3c-2.1,0-3.8-0.8-5-2.3
				s-1.8-3.8-1.8-6.7c0-6,2.2-8.9,6.7-8.9c2.2,0,3.9,0.8,5.1,2.3S519.4,439.7,519.4,442.5z M510.8,442.6c0,1.7,0.1,2.9,0.4,3.7
				c0.3,0.8,0.8,1.2,1.4,1.2c1.2,0,1.9-1.6,1.9-4.9c0-3.3-0.6-4.9-1.9-4.9c-0.7,0-1.1,0.4-1.4,1.2S510.8,440.9,510.8,442.6z"/>
		</g>
		<g>
			<path class="st1" d="M444,469.3l3-5.7h1.4l-3.8,7v4.4h-1.3v-4.4l-3.8-7.1h1.5L444,469.3z"/>
			<path class="st1" d="M457.2,470.7c0,1.4-0.4,2.5-1.1,3.3s-1.7,1.2-2.9,1.2c-0.8,0-1.4-0.2-2-0.5s-1.1-0.9-1.4-1.5
				s-0.5-1.5-0.5-2.4c0-1.4,0.3-2.5,1-3.3s1.7-1.2,2.9-1.2c1.2,0,2.1,0.4,2.9,1.2S457.2,469.4,457.2,470.7z M450.7,470.7
				c0,1.1,0.2,1.9,0.7,2.5s1.1,0.9,1.9,0.9s1.5-0.3,1.9-0.9s0.7-1.4,0.7-2.5c0-1.1-0.2-1.9-0.7-2.5s-1.1-0.8-1.9-0.8
				c-0.8,0-1.5,0.3-1.9,0.8S450.7,469.6,450.7,470.7z"/>
			<path class="st1" d="M460.7,466.4v5.6c0,0.7,0.2,1.2,0.5,1.6s0.8,0.5,1.5,0.5c0.9,0,1.6-0.2,2-0.7s0.6-1.3,0.6-2.4v-4.5h1.3v8.6
				h-1.1l-0.2-1.1h-0.1c-0.3,0.4-0.6,0.7-1.1,1s-1,0.3-1.6,0.3c-1,0-1.8-0.2-2.3-0.7s-0.8-1.3-0.8-2.4v-5.6H460.7z"/>
			<path class="st1" d="M473.2,466.3c0.4,0,0.7,0,1,0.1l-0.2,1.2c-0.4-0.1-0.7-0.1-0.9-0.1c-0.7,0-1.3,0.3-1.8,0.8s-0.7,1.3-0.7,2.1
				v4.6h-1.3v-8.6h1.1l0.1,1.6h0.1c0.3-0.6,0.7-1,1.1-1.3S472.7,466.3,473.2,466.3z"/>
			<path class="st1" d="M485.5,472.7c0,0.8-0.3,1.4-0.9,1.8s-1.4,0.6-2.5,0.6c-1.1,0-2-0.2-2.7-0.5v-1.2c0.4,0.2,0.9,0.4,1.3,0.5
				s0.9,0.2,1.4,0.2c0.7,0,1.2-0.1,1.6-0.3s0.5-0.5,0.5-1c0-0.3-0.1-0.6-0.4-0.9s-0.9-0.5-1.7-0.8c-0.8-0.3-1.4-0.6-1.7-0.8
				s-0.6-0.5-0.8-0.8s-0.2-0.6-0.2-1c0-0.7,0.3-1.2,0.9-1.7s1.3-0.6,2.3-0.6c0.9,0,1.8,0.2,2.7,0.6l-0.5,1.1
				c-0.9-0.4-1.6-0.5-2.3-0.5c-0.6,0-1.1,0.1-1.4,0.3s-0.5,0.5-0.5,0.8c0,0.2,0.1,0.4,0.2,0.6s0.3,0.3,0.6,0.5s0.8,0.4,1.5,0.6
				c1,0.4,1.7,0.7,2.1,1.1S485.5,472.1,485.5,472.7z"/>
			<path class="st1" d="M493.5,475v-5.5c0-0.7-0.2-1.2-0.5-1.6s-0.8-0.5-1.5-0.5c-0.9,0-1.6,0.2-2,0.7s-0.6,1.3-0.6,2.4v4.5h-1.3
				v-12.2h1.3v3.7c0,0.4,0,0.8-0.1,1.1h0.1c0.3-0.4,0.6-0.7,1.1-1s1-0.4,1.6-0.4c1,0,1.8,0.2,2.4,0.7s0.8,1.3,0.8,2.4v5.6H493.5z"/>
			<path class="st1" d="M502.7,475l-0.3-1.2h-0.1c-0.4,0.5-0.9,0.9-1.3,1.1s-1,0.3-1.6,0.3c-0.8,0-1.5-0.2-2-0.7s-0.7-1.1-0.7-1.9
				c0-1.7,1.4-2.6,4.1-2.7l1.5,0v-0.5c0-0.7-0.1-1.2-0.4-1.5s-0.8-0.5-1.4-0.5c-0.7,0-1.5,0.2-2.4,0.7l-0.4-1
				c0.4-0.2,0.9-0.4,1.4-0.5s1-0.2,1.5-0.2c1,0,1.8,0.2,2.3,0.7s0.7,1.2,0.7,2.2v5.8H502.7z M499.8,474.1c0.8,0,1.4-0.2,1.9-0.7
				s0.7-1.1,0.7-1.9v-0.8l-1.3,0.1c-1,0-1.8,0.2-2.2,0.5s-0.7,0.7-0.7,1.3c0,0.5,0.1,0.8,0.4,1.1S499.3,474.1,499.8,474.1z"/>
			<path class="st1" d="M510.3,466.3c0.4,0,0.7,0,1,0.1l-0.2,1.2c-0.4-0.1-0.7-0.1-0.9-0.1c-0.7,0-1.3,0.3-1.8,0.8s-0.7,1.3-0.7,2.1
				v4.6h-1.3v-8.6h1.1l0.1,1.6h0.1c0.3-0.6,0.7-1,1.1-1.3S509.7,466.3,510.3,466.3z"/>
			<path class="st1" d="M516.5,475.2c-1.3,0-2.3-0.4-3-1.2s-1.1-1.8-1.1-3.2c0-1.4,0.3-2.5,1-3.3s1.6-1.2,2.7-1.2
				c1.1,0,1.9,0.4,2.5,1.1s0.9,1.6,0.9,2.8v0.8h-5.9c0,1,0.3,1.8,0.8,2.3s1.2,0.8,2,0.8c0.9,0,1.8-0.2,2.7-0.6v1.2
				c-0.5,0.2-0.9,0.3-1.3,0.4S517.1,475.2,516.5,475.2z M516.2,467.4c-0.7,0-1.2,0.2-1.6,0.7s-0.6,1.1-0.7,1.9h4.5
				c0-0.8-0.2-1.4-0.5-1.9S516.8,467.4,516.2,467.4z"/>
		</g>
	</g>
	<g>
		<g>
			<path class="st1" d="M64.9,159.4c0,1.8-0.5,3.3-1.4,4.3s-2.2,1.6-3.9,1.6c-1.7,0-3-0.5-3.9-1.5s-1.4-2.5-1.4-4.4
				c0-1.9,0.5-3.3,1.4-4.3s2.2-1.5,3.9-1.5c1.6,0,2.9,0.5,3.8,1.6S64.9,157.6,64.9,159.4z M55.8,159.4c0,1.5,0.3,2.7,1,3.5
				s1.6,1.2,2.9,1.2c1.3,0,2.2-0.4,2.9-1.2s1-2,1-3.5c0-1.5-0.3-2.7-1-3.5s-1.6-1.2-2.9-1.2c-1.3,0-2.2,0.4-2.9,1.2
				S55.8,157.9,55.8,159.4z"/>
			<path class="st1" d="M68.5,156.6v5.6c0,0.7,0.2,1.2,0.5,1.6s0.8,0.5,1.5,0.5c0.9,0,1.6-0.2,2-0.7s0.6-1.3,0.6-2.4v-4.5h1.3v8.6
				h-1.1l-0.2-1.1H73c-0.3,0.4-0.6,0.7-1.1,1s-1,0.3-1.6,0.3c-1,0-1.8-0.2-2.3-0.7s-0.8-1.3-0.8-2.4v-5.6H68.5z"/>
			<path class="st1" d="M81,156.4c0.4,0,0.7,0,1,0.1l-0.2,1.2c-0.4-0.1-0.7-0.1-0.9-0.1c-0.7,0-1.3,0.3-1.8,0.8s-0.7,1.3-0.7,2.1
				v4.6h-1.3v-8.6h1.1l0.1,1.6h0.1c0.3-0.6,0.7-1,1.1-1.3S80.5,156.4,81,156.4z"/>
			<path class="st1" d="M93.3,162.8c0,0.8-0.3,1.4-0.9,1.8s-1.4,0.6-2.5,0.6c-1.1,0-2-0.2-2.7-0.5v-1.2c0.4,0.2,0.9,0.4,1.3,0.5
				s0.9,0.2,1.4,0.2c0.7,0,1.2-0.1,1.6-0.3s0.5-0.5,0.5-1c0-0.3-0.1-0.6-0.4-0.9s-0.9-0.5-1.7-0.8c-0.8-0.3-1.4-0.6-1.7-0.8
				s-0.6-0.5-0.8-0.8s-0.2-0.6-0.2-1c0-0.7,0.3-1.2,0.9-1.7s1.3-0.6,2.3-0.6c0.9,0,1.8,0.2,2.7,0.6l-0.5,1.1
				c-0.9-0.4-1.6-0.5-2.3-0.5c-0.6,0-1.1,0.1-1.4,0.3s-0.5,0.5-0.5,0.8c0,0.2,0.1,0.4,0.2,0.6s0.3,0.3,0.6,0.5s0.8,0.4,1.5,0.6
				c1,0.4,1.7,0.7,2.1,1.1S93.3,162.3,93.3,162.8z"/>
			<path class="st1" d="M101.3,165.2v-5.5c0-0.7-0.2-1.2-0.5-1.6s-0.8-0.5-1.5-0.5c-0.9,0-1.6,0.2-2,0.7s-0.6,1.3-0.6,2.4v4.5h-1.3
				V153h1.3v3.7c0,0.4,0,0.8-0.1,1.1h0.1c0.3-0.4,0.6-0.7,1.1-1s1-0.4,1.6-0.4c1,0,1.8,0.2,2.4,0.7s0.8,1.3,0.8,2.4v5.6H101.3z"/>
			<path class="st1" d="M110.5,165.2l-0.3-1.2h-0.1c-0.4,0.5-0.9,0.9-1.3,1.1s-1,0.3-1.6,0.3c-0.8,0-1.5-0.2-2-0.7s-0.7-1.1-0.7-1.9
				c0-1.7,1.4-2.6,4.1-2.7l1.5,0v-0.5c0-0.7-0.1-1.2-0.4-1.5s-0.8-0.5-1.4-0.5c-0.7,0-1.5,0.2-2.4,0.7l-0.4-1
				c0.4-0.2,0.9-0.4,1.4-0.5s1-0.2,1.5-0.2c1,0,1.8,0.2,2.3,0.7s0.7,1.2,0.7,2.2v5.8H110.5z M107.6,164.2c0.8,0,1.4-0.2,1.9-0.7
				s0.7-1.1,0.7-1.9v-0.8l-1.3,0.1c-1,0-1.8,0.2-2.2,0.5s-0.7,0.7-0.7,1.3c0,0.5,0.1,0.8,0.4,1.1S107.1,164.2,107.6,164.2z"/>
			<path class="st1" d="M118,156.4c0.4,0,0.7,0,1,0.1l-0.2,1.2c-0.4-0.1-0.7-0.1-0.9-0.1c-0.7,0-1.3,0.3-1.8,0.8s-0.7,1.3-0.7,2.1
				v4.6h-1.3v-8.6h1.1l0.1,1.6h0.1c0.3-0.6,0.7-1,1.1-1.3S117.5,156.4,118,156.4z"/>
			<path class="st1" d="M124.3,165.3c-1.3,0-2.3-0.4-3-1.2s-1.1-1.8-1.1-3.2c0-1.4,0.3-2.5,1-3.3s1.6-1.2,2.7-1.2
				c1.1,0,1.9,0.4,2.5,1.1s0.9,1.6,0.9,2.8v0.8h-5.9c0,1,0.3,1.8,0.8,2.3s1.2,0.8,2,0.8c0.9,0,1.8-0.2,2.7-0.6v1.2
				c-0.5,0.2-0.9,0.3-1.3,0.4S124.9,165.3,124.3,165.3z M123.9,157.5c-0.7,0-1.2,0.2-1.6,0.7s-0.6,1.1-0.7,1.9h4.5
				c0-0.8-0.2-1.4-0.5-1.9S124.6,157.5,123.9,157.5z"/>
		</g>
		<g>
			<path class="st1" d="M71.6,140.6h-20v-4.2l7.2-7.2c2.1-2.2,3.5-3.7,4.2-4.5s1.1-1.6,1.4-2.3c0.3-0.7,0.4-1.5,0.4-2.2
				c0-1.1-0.3-2-0.9-2.6c-0.6-0.6-1.5-0.8-2.5-0.8c-1.1,0-2.2,0.3-3.2,0.8s-2.1,1.2-3.3,2.2l-3.3-3.9c1.4-1.2,2.6-2,3.5-2.5
				c0.9-0.5,1.9-0.9,3-1.1c1.1-0.3,2.3-0.4,3.7-0.4c1.8,0,3.4,0.3,4.7,1c1.4,0.7,2.4,1.6,3.2,2.7s1.1,2.5,1.1,4
				c0,1.3-0.2,2.5-0.7,3.7s-1.2,2.3-2.1,3.5s-2.7,2.9-5.1,5.2l-3.7,3.5v0.3h12.4V140.6z"/>
			<path class="st1" d="M84.9,122.4c2.8,0,5,0.8,6.6,2.3c1.6,1.5,2.5,3.7,2.5,6.4c0,3.2-1,5.6-2.9,7.4s-4.8,2.6-8.4,2.6
				c-3.2,0-5.7-0.5-7.7-1.5v-5.2c1,0.5,2.2,1,3.6,1.3c1.4,0.3,2.7,0.5,3.9,0.5c3.7,0,5.5-1.5,5.5-4.5c0-2.9-1.9-4.3-5.7-4.3
				c-0.7,0-1.5,0.1-2.3,0.2s-1.5,0.3-2,0.4l-2.4-1.3l1.1-14.6H92v5.1H81.8l-0.5,5.6l0.7-0.1C82.7,122.5,83.7,122.4,84.9,122.4z"/>
			<path class="st1" d="M110.5,120.6c0,3-0.6,5.2-1.7,6.7s-2.9,2.3-5.1,2.3c-2.1,0-3.8-0.8-5-2.3s-1.8-3.8-1.8-6.7
				c0-6,2.2-8.9,6.7-8.9c2.2,0,3.9,0.8,5.1,2.3S110.5,117.7,110.5,120.6z M101.9,120.6c0,1.7,0.1,2.9,0.4,3.7
				c0.3,0.8,0.8,1.2,1.4,1.2c1.2,0,1.9-1.6,1.9-4.9c0-3.3-0.6-4.9-1.9-4.9c-0.7,0-1.1,0.4-1.4,1.2S101.9,119,101.9,120.6z
				 M124,112.1l-15.8,28.6h-4.7l15.8-28.6H124z M130.5,132c0,3-0.6,5.2-1.7,6.7s-2.9,2.3-5.1,2.3c-2.1,0-3.8-0.8-5-2.3
				s-1.8-3.8-1.8-6.7c0-6,2.2-8.9,6.7-8.9c2.2,0,3.9,0.8,5.1,2.3S130.5,129.1,130.5,132z M121.9,132c0,1.7,0.1,2.9,0.4,3.7
				c0.3,0.8,0.8,1.2,1.4,1.2c1.2,0,1.9-1.6,1.9-4.9c0-3.3-0.6-4.9-1.9-4.9c-0.7,0-1.1,0.4-1.4,1.2S121.9,130.4,121.9,132z"/>
		</g>
	</g>
</g>
</svg>
