<?xml version="1.0" encoding="utf-8"?>
<!-- Generator: Adobe Illustrator 21.1.0, SVG Export Plug-In . SVG Version: 6.00 Build 0)  -->
<svg version="1.1" id="Layer_1" xmlns="http://www.w3.org/2000/svg" xmlns:xlink="http://www.w3.org/1999/xlink" x="0px" y="0px"
	 viewBox="0 0 370 385" style="enable-background:new 0 0 370 385;" xml:space="preserve">
<style type="text/css">
	.st0{opacity:0.2;fill:#F5F5F7;enable-background:new    ;}
	.st1{fill:#854399;}
	.st2{opacity:0.5;filter:url(#filter-1);enable-background:new    ;}
	.st3{fill:#EFC09B;}
	.st4{opacity:0.1;fill:#FFFFFF;enable-background:new    ;}
	.st5{fill:#C5936C;}
	.st6{fill:#FFFFFF;}
	.st7{fill:none;stroke:#FFFFFF;}
	.st8{filter:url(#filter-3);}
	.st9{filter:url(#filter-5);}
</style>
<filter  filterUnits="objectBoundingBox" height="230.2%" id="filter-5" width="197.6%" x="-48.8%" y="-49.2%">
	<feOffset  dx="0" dy="10" in="SourceAlpha" result="shadowOffsetOuter1"></feOffset>
	<feGaussianBlur  in="shadowOffsetOuter1" result="shadowBlurOuter1" stdDeviation="12"></feGaussianBlur>
	<feColorMatrix  in="shadowBlurOuter1" type="matrix" values="0 0 0 0 0   0 0 0 0 0   0 0 0 0 0  0 0 0 0.258322011 0">
		</feColorMatrix>
</filter>
<filter  filterUnits="objectBoundingBox" height="230.2%" id="filter-3" width="197.6%" x="-48.8%" y="-49.2%">
	<feOffset  dx="0" dy="10" in="SourceAlpha" result="shadowOffsetOuter1"></feOffset>
	<feGaussianBlur  in="shadowOffsetOuter1" result="shadowBlurOuter1" stdDeviation="12"></feGaussianBlur>
	<feColorMatrix  in="shadowBlurOuter1" type="matrix" values="0 0 0 0 0   0 0 0 0 0   0 0 0 0 0  0 0 0 0.258322011 0">
		</feColorMatrix>
</filter>
<filter  filterUnits="objectBoundingBox" height="170.8%" id="filter-1" width="169.8%" x="-34.9%" y="-35.4%">
	<feGaussianBlur  in="SourceGraphic" stdDeviation="29"></feGaussianBlur>
</filter>
<title>Image</title>
<desc>Created with Sketch.</desc>
<g>
	<ellipse id="Oval-8" class="st0" cx="188.5" cy="190.5" rx="139.5" ry="137.5"/>
	<ellipse id="Oval-8_1_" class="st1" cx="188.5" cy="190.5" rx="119" ry="117.3"/>
	<g id="Combined-Shape" class="st2">
		<path d="M63.9,190.9c0.2,67.6,55.9,122.4,124.6,122.4c68.8,0,124.6-55,124.6-122.8c0-67.7-55.5-122.6-124.2-122.8v123.3H63.9
			L63.9,190.9z"/>
	</g>
	<path id="Combined-Shape_1_" class="st3" d="M49,191c0.3,75.7,62.6,137,139.5,137c77,0,139.5-61.6,139.5-137.5
		c0-75.8-62.2-137.2-139-137.5v138H49L49,191z"/>
	<path id="Combined-Shape_2_" class="st4" d="M189,72.6V53c76.8,0.3,139,61.7,139,137.5c0,75.9-62.5,137.5-139.5,137.5
		C111.6,328,49.3,266.7,49,191h19.8c0.6,64.3,53.7,116.1,119,116.1c65.7,0,119-52.5,119-117.3C306.8,125.5,254.2,73.2,189,72.6z"/>
	<ellipse id="Oval-8_2_" class="st5" cx="188.5" cy="190.5" rx="46.5" ry="45.5"/>
	<circle id="Oval-9" class="st6" cx="280" cy="233" r="4"/>
	<polyline id="Path-8" class="st7" points="280,233 310.5,263.5 310.5,319 	"/>
	<g id="Rectangle-21">
		<g class="st8">
			<path id="path-2_2_" d="M270,288h76c2.2,0,4,1.8,4,4v55c0,2.2-1.8,4-4,4h-76c-2.2,0-4-1.8-4-4v-55C266,289.8,267.8,288,270,288z"
				/>
		</g>
		<g>
			<path id="path-2_1_" class="st6" d="M270,288h76c2.2,0,4,1.8,4,4v55c0,2.2-1.8,4-4,4h-76c-2.2,0-4-1.8-4-4v-55
				C266,289.8,267.8,288,270,288z"/>
		</g>
	</g>
	<circle id="Oval-9_1_" class="st6" cx="153" cy="125" r="4"/>
	<polyline id="Path-9" class="st7" points="153,125 120.5,92.5 59.8,92.5 	"/>
	<g id="Rectangle-21_1_">
		<g class="st9">
			<path id="path-4_2_" d="M24,60h76c2.2,0,4,1.8,4,4v55c0,2.2-1.8,4-4,4H24c-2.2,0-4-1.8-4-4V64C20,61.8,21.8,60,24,60z"/>
		</g>
		<g>
			<path id="path-4_1_" class="st6" d="M24,60h76c2.2,0,4,1.8,4,4v55c0,2.2-1.8,4-4,4H24c-2.2,0-4-1.8-4-4V64C20,61.8,21.8,60,24,60
				z"/>
		</g>
	</g>
	<g>
		<path class="st1" d="M41.9,106.3c0,1.5-0.4,2.7-1.1,3.5s-1.8,1.3-3.1,1.3c-1.4,0-2.4-0.4-3.2-1.3c-0.7-0.8-1.1-2-1.1-3.5
			s0.4-2.7,1.1-3.5c0.7-0.8,1.8-1.2,3.2-1.2c1.3,0,2.4,0.4,3.1,1.3C41.5,103.6,41.9,104.8,41.9,106.3z M34.5,106.3
			c0,1.3,0.3,2.2,0.8,2.9c0.5,0.6,1.3,1,2.3,1s1.8-0.3,2.3-1s0.8-1.6,0.8-2.9c0-1.2-0.3-2.2-0.8-2.8c-0.5-0.6-1.3-1-2.3-1
			s-1.8,0.3-2.3,1C34.8,104.1,34.5,105,34.5,106.3z"/>
		<path class="st1" d="M44.8,104v4.5c0,0.6,0.1,1,0.4,1.3c0.3,0.3,0.7,0.4,1.2,0.4c0.7,0,1.3-0.2,1.6-0.6c0.3-0.4,0.5-1,0.5-1.9
			v-3.7h1.1v7h-0.9l-0.2-0.9h-0.1c-0.2,0.3-0.5,0.6-0.9,0.8c-0.4,0.2-0.8,0.3-1.3,0.3c-0.8,0-1.5-0.2-1.9-0.6
			c-0.4-0.4-0.6-1-0.6-1.9v-4.6h1.1V104z"/>
		<path class="st1" d="M55,103.8c0.3,0,0.6,0,0.8,0.1l-0.1,1c-0.3-0.1-0.5-0.1-0.8-0.1c-0.6,0-1,0.2-1.4,0.7s-0.6,1-0.6,1.7v3.7
			h-1.1v-7h0.9l0.1,1.3h0.1c0.3-0.5,0.6-0.8,0.9-1C54.1,104,54.5,103.8,55,103.8z"/>
		<path class="st1" d="M65,109c0,0.6-0.2,1.1-0.7,1.5c-0.5,0.4-1.2,0.5-2,0.5c-0.9,0-1.6-0.1-2.2-0.4v-1c0.3,0.2,0.7,0.3,1.1,0.4
			c0.4,0.1,0.8,0.1,1.1,0.1c0.6,0,1-0.1,1.3-0.3s0.4-0.4,0.4-0.8c0-0.3-0.1-0.5-0.4-0.7c-0.2-0.2-0.7-0.4-1.4-0.7
			c-0.6-0.2-1.1-0.5-1.4-0.6c-0.3-0.2-0.5-0.4-0.6-0.6s-0.2-0.5-0.2-0.8c0-0.6,0.2-1,0.7-1.3s1.1-0.5,1.9-0.5c0.7,0,1.5,0.2,2.2,0.5
			l-0.4,0.9c-0.7-0.3-1.3-0.4-1.9-0.4c-0.5,0-0.9,0.1-1.1,0.2c-0.2,0.1-0.4,0.4-0.4,0.6s0,0.3,0.1,0.5c0.1,0.1,0.2,0.3,0.5,0.4
			c0.2,0.1,0.6,0.3,1.2,0.5c0.8,0.3,1.4,0.6,1.7,0.9S65,108.6,65,109z"/>
		<path class="st1" d="M71.4,110.9v-4.5c0-0.6-0.1-1-0.4-1.3s-0.7-0.4-1.2-0.4c-0.7,0-1.3,0.2-1.6,0.6c-0.3,0.4-0.5,1-0.5,2v3.6
			h-1.1V101h1.1v3c0,0.4,0,0.7-0.1,0.9h0.1c0.2-0.3,0.5-0.6,0.9-0.8c0.4-0.2,0.8-0.3,1.3-0.3c0.9,0,1.5,0.2,1.9,0.6
			c0.4,0.4,0.6,1,0.6,1.9v4.5h-1V110.9z"/>
		<path class="st1" d="M78.9,110.9l-0.2-1h-0.1c-0.3,0.4-0.7,0.7-1,0.9s-0.8,0.2-1.3,0.2c-0.7,0-1.2-0.2-1.6-0.5
			c-0.4-0.3-0.6-0.9-0.6-1.5c0-1.4,1.1-2.1,3.4-2.2h1.2v-0.4c0-0.5-0.1-0.9-0.4-1.2c-0.2-0.3-0.6-0.4-1.1-0.4c-0.6,0-1.2,0.2-2,0.5
			l-0.3-0.8c0.3-0.2,0.7-0.3,1.1-0.4c0.4-0.1,0.8-0.2,1.2-0.2c0.8,0,1.4,0.2,1.8,0.6c0.4,0.4,0.6,1,0.6,1.8v4.7L78.9,110.9
			L78.9,110.9z M76.6,110.3c0.7,0,1.2-0.2,1.5-0.5c0.4-0.4,0.6-0.9,0.6-1.5v-0.6h-1.1c-0.8,0-1.4,0.2-1.8,0.4
			c-0.4,0.2-0.6,0.6-0.6,1.1c0,0.4,0.1,0.7,0.3,0.9C75.7,110.3,76.1,110.3,76.6,110.3z"/>
		<path class="st1" d="M85.1,103.8c0.3,0,0.6,0,0.8,0.1l-0.1,1c-0.3-0.1-0.5-0.1-0.8-0.1c-0.6,0-1,0.2-1.4,0.7
			c-0.4,0.5-0.6,1-0.6,1.7v3.7h-1.1v-7h0.9l0.1,1.3l0,0c0.3-0.5,0.6-0.8,0.9-1C84.2,104,84.6,103.8,85.1,103.8z"/>
		<path class="st1" d="M90.1,111.1c-1,0-1.8-0.3-2.4-0.9c-0.6-0.6-0.9-1.5-0.9-2.6c0-1.1,0.3-2,0.8-2.7c0.6-0.7,1.3-1,2.2-1
			c0.9,0,1.6,0.3,2.1,0.9c0.5,0.6,0.8,1.3,0.8,2.3v0.7h-4.8c0,0.8,0.2,1.4,0.6,1.9c0.4,0.5,0.9,0.6,1.7,0.6s1.5-0.2,2.2-0.5v0.9
			c-0.4,0.2-0.7,0.3-1.1,0.3C91,111,90.6,111.1,90.1,111.1z M89.8,104.8c-0.6,0-1,0.2-1.3,0.5s-0.5,0.9-0.6,1.5h3.6
			c0-0.7-0.1-1.2-0.4-1.5C90.8,104.9,90.4,104.8,89.8,104.8z"/>
	</g>
	<g>
		<path class="st1" d="M48.5,95h-15v-3.1l5.4-5.4c1.6-1.6,2.6-2.8,3.1-3.4c0.5-0.6,0.8-1.2,1.1-1.8s0.3-1.1,0.3-1.7
			c0-0.9-0.2-1.5-0.7-1.9c-0.5-0.4-1.1-0.6-1.9-0.6s-1.6,0.2-2.4,0.6c-0.8,0.4-1.6,0.9-2.4,1.6l-2.5-2.9c1.1-0.9,1.9-1.5,2.6-1.9
			c0.7-0.4,1.5-0.7,2.3-0.9c0.8-0.2,1.7-0.3,2.8-0.3c1.3,0,2.5,0.2,3.5,0.7s1.8,1.2,2.4,2.1c0.6,0.9,0.8,1.9,0.8,3
			c0,1-0.2,1.9-0.5,2.8c-0.3,0.9-0.9,1.8-1.6,2.7s-2,2.2-3.8,3.9l-2.8,2.6v0.2h9.3C48.5,91.3,48.5,95,48.5,95z"/>
		<path class="st1" d="M58.5,81.3c2.1,0,3.7,0.6,4.9,1.7c1.2,1.2,1.8,2.8,1.8,4.8c0,2.4-0.7,4.2-2.2,5.5s-3.6,1.9-6.3,1.9
			c-2.4,0-4.3-0.4-5.8-1.2v-3.9c0.8,0.4,1.7,0.7,2.7,1s2,0.4,2.9,0.4c2.8,0,4.1-1.1,4.1-3.4c0-2.2-1.4-3.2-4.3-3.2
			c-0.5,0-1.1,0.1-1.7,0.2c-0.6,0.1-1.1,0.2-1.5,0.3l-1.8-1l0.8-10.9h11.6v3.8h-7.6l-0.4,4.2l0.5-0.1C56.9,81.4,57.6,81.3,58.5,81.3
			z"/>
		<path class="st1" d="M77.7,80c0,2.2-0.4,3.9-1.3,5.1s-2.1,1.7-3.8,1.7c-1.6,0-2.9-0.6-3.7-1.7c-0.8-1.1-1.3-2.8-1.3-5
			c0-4.5,1.7-6.7,5.1-6.7c1.7,0,2.9,0.6,3.8,1.7C77.4,76.2,77.7,77.8,77.7,80z M71.2,80c0,1.2,0.1,2.2,0.3,2.8
			c0.2,0.6,0.6,0.9,1.1,0.9c0.9,0,1.4-1.2,1.4-3.7c0-2.4-0.5-3.7-1.4-3.7c-0.5,0-0.8,0.3-1.1,0.9C71.3,77.9,71.2,78.8,71.2,80z
			 M87.8,73.6L75.9,95h-3.5l11.9-21.4H87.8z M92.7,88.6c0,2.2-0.4,3.9-1.3,5c-0.9,1.1-2.1,1.7-3.8,1.7c-1.6,0-2.9-0.6-3.7-1.7
			c-0.8-1.1-1.3-2.8-1.3-5c0-4.5,1.7-6.7,5.1-6.7c1.7,0,2.9,0.6,3.8,1.7C92.4,84.7,92.7,86.4,92.7,88.6z M86.2,88.6
			c0,1.2,0.1,2.2,0.3,2.8c0.2,0.6,0.6,0.9,1.1,0.9c0.9,0,1.4-1.2,1.4-3.7c0-2.4-0.5-3.7-1.4-3.7c-0.5,0-0.8,0.3-1.1,0.9
			C86.3,86.4,86.2,87.3,86.2,88.6z"/>
	</g>
	<g>
		<path class="st1" d="M281.7,323.1l8-17.6h-10.6v-3.8h15.4v2.8l-8.1,18.5h-4.7V323.1z"/>
		<path class="st1" d="M304.5,309.4c2.1,0,3.7,0.6,4.9,1.7c1.2,1.1,1.8,2.8,1.8,4.8c0,2.4-0.7,4.2-2.2,5.5s-3.6,1.9-6.3,1.9
			c-2.4,0-4.3-0.4-5.8-1.2v-3.9c0.8,0.4,1.7,0.7,2.7,1s2,0.4,2.9,0.4c2.8,0,4.1-1.1,4.1-3.4c0-2.2-1.4-3.2-4.3-3.2
			c-0.5,0-1.1,0.1-1.7,0.2c-0.6,0.1-1.1,0.2-1.5,0.3l-1.8-1l0.8-10.9h11.6v3.8h-7.6l-0.4,4.2l0.5-0.1
			C302.9,309.5,303.7,309.4,304.5,309.4z"/>
		<path class="st1" d="M323.8,308.1c0,2.2-0.4,3.9-1.3,5.1c-0.9,1.2-2.1,1.7-3.8,1.7c-1.6,0-2.9-0.6-3.7-1.7c-0.8-1.1-1.3-2.8-1.3-5
			c0-4.5,1.7-6.7,5.1-6.7c1.7,0,2.9,0.6,3.8,1.7C323.5,304.3,323.8,305.9,323.8,308.1z M317.3,308.1c0,1.2,0.1,2.2,0.3,2.8
			c0.2,0.6,0.6,0.9,1.1,0.9c0.9,0,1.4-1.2,1.4-3.7c0-2.4-0.5-3.7-1.4-3.7c-0.5,0-0.8,0.3-1.1,0.9
			C317.4,305.9,317.3,306.9,317.3,308.1z M333.9,301.7L322,323.1h-3.5l11.9-21.4H333.9z M338.8,316.6c0,2.2-0.4,3.9-1.3,5
			c-0.9,1.1-2.1,1.7-3.8,1.7c-1.6,0-2.9-0.6-3.7-1.7c-0.8-1.1-1.3-2.8-1.3-5c0-4.5,1.7-6.7,5.1-6.7c1.7,0,2.9,0.6,3.8,1.7
			C338.5,312.7,338.8,314.5,338.8,316.6z M332.3,316.6c0,1.2,0.1,2.2,0.3,2.8c0.2,0.6,0.6,0.9,1.1,0.9c0.9,0,1.4-1.2,1.4-3.7
			c0-2.4-0.5-3.7-1.4-3.7c-0.5,0-0.8,0.3-1.1,0.9C332.4,314.5,332.3,315.4,332.3,316.6z"/>
	</g>
	<g>
		<path class="st1" d="M279.2,334.3l2.5-4.6h1.2l-3.1,5.7v3.6h-1.1v-3.5l-3.1-5.7h1.2L279.2,334.3z"/>
		<path class="st1" d="M289.9,335.5c0,1.1-0.3,2-0.9,2.7c-0.6,0.6-1.4,1-2.4,1c-0.6,0-1.2-0.1-1.7-0.4s-0.9-0.7-1.1-1.3
			c-0.3-0.5-0.4-1.2-0.4-1.9c0-1.1,0.3-2,0.8-2.6c0.6-0.6,1.4-0.9,2.4-0.9s1.7,0.3,2.3,1S289.9,334.4,289.9,335.5z M284.6,335.5
			c0,0.9,0.2,1.6,0.5,2s0.9,0.7,1.6,0.7s1.2-0.2,1.6-0.7s0.5-1.1,0.5-2s-0.2-1.6-0.5-2c-0.4-0.5-0.9-0.7-1.6-0.7s-1.2,0.2-1.6,0.7
			S284.6,334.6,284.6,335.5z"/>
		<path class="st1" d="M292.8,332v4.5c0,0.6,0.1,1,0.4,1.3s0.7,0.4,1.2,0.4c0.7,0,1.3-0.2,1.6-0.6c0.3-0.4,0.5-1,0.5-1.9V332h1.1v7
			h-0.9l-0.2-0.9h-0.1c-0.2,0.3-0.5,0.6-0.9,0.8s-0.8,0.3-1.3,0.3c-0.8,0-1.5-0.2-1.9-0.6s-0.6-1-0.6-1.9v-4.6L292.8,332L292.8,332z
			"/>
		<path class="st1" d="M302.9,331.9c0.3,0,0.6,0,0.8,0.1l-0.1,1c-0.3-0.1-0.5-0.1-0.8-0.1c-0.6,0-1,0.2-1.4,0.7s-0.6,1-0.6,1.7v3.7
			h-1.1v-7h0.9l0.1,1.3h0.1c0.3-0.5,0.6-0.8,0.9-1C302.1,332,302.5,331.9,302.9,331.9z"/>
		<path class="st1" d="M312.9,337.1c0,0.6-0.2,1.1-0.7,1.5s-1.2,0.5-2,0.5c-0.9,0-1.6-0.1-2.2-0.4v-1c0.3,0.2,0.7,0.3,1.1,0.4
			s0.8,0.1,1.1,0.1c0.6,0,1-0.1,1.3-0.3c0.3-0.2,0.4-0.4,0.4-0.8c0-0.3-0.1-0.5-0.4-0.7c-0.2-0.2-0.7-0.4-1.4-0.7
			c-0.6-0.2-1.1-0.5-1.4-0.6c-0.3-0.2-0.5-0.4-0.6-0.6s-0.2-0.5-0.2-0.8c0-0.6,0.2-1,0.7-1.3s1.1-0.5,1.9-0.5c0.7,0,1.5,0.2,2.2,0.5
			l-0.4,0.9c-0.7-0.3-1.3-0.4-1.9-0.4c-0.5,0-0.9,0.1-1.1,0.2s-0.4,0.4-0.4,0.6s0,0.3,0.1,0.5c0.1,0.1,0.2,0.3,0.5,0.4
			c0.2,0.1,0.6,0.3,1.2,0.5c0.8,0.3,1.4,0.6,1.7,0.9S312.9,336.6,312.9,337.1z"/>
		<path class="st1" d="M319.4,339v-4.5c0-0.6-0.1-1-0.4-1.3s-0.7-0.4-1.2-0.4c-0.7,0-1.3,0.2-1.6,0.6c-0.3,0.4-0.5,1-0.5,2v3.6h-1.1
			v-9.9h1.1v3c0,0.4,0,0.7-0.1,0.9h0.1c0.2-0.3,0.5-0.6,0.9-0.8c0.4-0.2,0.8-0.3,1.3-0.3c0.9,0,1.5,0.2,1.9,0.6s0.6,1,0.6,1.9v4.5
			L319.4,339L319.4,339z"/>
		<path class="st1" d="M326.9,339l-0.2-1h-0.1c-0.3,0.4-0.7,0.7-1,0.9c-0.3,0.2-0.8,0.2-1.3,0.2c-0.7,0-1.2-0.2-1.6-0.5
			s-0.6-0.9-0.6-1.5c0-1.4,1.1-2.1,3.4-2.2h1.2v-0.4c0-0.5-0.1-0.9-0.4-1.2c-0.2-0.3-0.6-0.4-1.1-0.4c-0.6,0-1.2,0.2-2,0.5l-0.3-0.8
			c0.3-0.2,0.7-0.3,1.1-0.4s0.8-0.2,1.2-0.2c0.8,0,1.4,0.2,1.8,0.6s0.6,1,0.6,1.8v4.7h-0.7V339z M324.5,338.2c0.7,0,1.2-0.2,1.5-0.5
			c0.4-0.4,0.6-0.9,0.6-1.5v-0.6h-1.1c-0.8,0-1.4,0.2-1.8,0.4c-0.4,0.2-0.6,0.6-0.6,1.1c0,0.4,0.1,0.7,0.3,0.9
			S324.1,338.2,324.5,338.2z"/>
		<path class="st1" d="M333,331.9c0.3,0,0.6,0,0.8,0.1l-0.1,1c-0.3-0.1-0.5-0.1-0.8-0.1c-0.6,0-1,0.2-1.4,0.7s-0.6,1-0.6,1.7v3.7h-1
			v-7h0.9l0.1,1.3h0.1c0.3-0.5,0.6-0.8,0.9-1C332.2,332,332.6,331.9,333,331.9z"/>
		<path class="st1" d="M338.1,339.1c-1,0-1.8-0.3-2.4-0.9s-0.9-1.5-0.9-2.6s0.3-2,0.8-2.7c0.6-0.7,1.3-1,2.2-1
			c0.9,0,1.6,0.3,2.1,0.9s0.8,1.3,0.8,2.3v0.7h-4.8c0,0.8,0.2,1.4,0.6,1.9s0.9,0.6,1.7,0.6c0.8,0,1.5-0.2,2.2-0.5v0.9
			c-0.4,0.2-0.7,0.3-1.1,0.3C339,339.1,338.6,339.1,338.1,339.1z M337.8,332.8c-0.6,0-1,0.2-1.3,0.5s-0.5,0.9-0.6,1.5h3.6
			c0-0.7-0.1-1.2-0.4-1.5C338.8,332.9,338.4,332.8,337.8,332.8z"/>
	</g>
	<g>
		<path class="st6" d="M173,171.5c-1,0-1.8,0.3-2.4,1c-0.6,0.7-0.9,1.6-0.9,2.8c0,1.2,0.3,2.2,0.9,2.8c0.6,0.7,1.4,1,2.4,1
			c0.6,0,1.4-0.1,2.2-0.3v0.9c-0.6,0.2-1.4,0.4-2.4,0.4c-1.4,0-2.4-0.4-3.2-1.2c-0.7-0.8-1.1-2-1.1-3.5c0-1,0.2-1.8,0.5-2.5
			c0.4-0.7,0.9-1.3,1.5-1.7c0.7-0.4,1.5-0.6,2.4-0.6c1,0,1.8,0.2,2.6,0.5l-0.5,0.9C174.4,171.6,173.7,171.5,173,171.5z"/>
		<path class="st6" d="M178.1,179.9h-1.1V170h1.1V179.9z"/>
		<path class="st6" d="M180.3,171.1c0-0.2,0.1-0.4,0.2-0.5c0.1-0.1,0.3-0.2,0.4-0.2c0.2,0,0.3,0.1,0.4,0.2c0.1,0.1,0.2,0.3,0.2,0.5
			s-0.1,0.4-0.2,0.5c-0.1,0.1-0.3,0.2-0.4,0.2c-0.2,0-0.3-0.1-0.4-0.2C180.3,171.5,180.3,171.3,180.3,171.1z M181.4,179.9h-1.1v-7
			h1.1V179.9z"/>
		<path class="st6" d="M186.6,180c-1,0-1.8-0.3-2.4-0.9s-0.9-1.5-0.9-2.6c0-1.1,0.3-2,0.8-2.7c0.6-0.7,1.3-1,2.2-1
			c0.9,0,1.6,0.3,2.1,0.9c0.5,0.6,0.8,1.3,0.8,2.3v0.7h-4.8c0,0.8,0.2,1.4,0.6,1.9s0.9,0.6,1.7,0.6c0.8,0,1.5-0.2,2.2-0.5v0.9
			c-0.4,0.2-0.7,0.3-1.1,0.3C187.5,180,187.1,180,186.6,180z M186.3,173.7c-0.6,0-1,0.2-1.3,0.5s-0.5,0.9-0.6,1.5h3.6
			c0-0.7-0.1-1.2-0.4-1.5C187.3,173.9,186.9,173.7,186.3,173.7z"/>
		<path class="st6" d="M195.7,179.9v-4.5c0-0.6-0.1-1-0.4-1.3c-0.3-0.3-0.7-0.4-1.2-0.4c-0.7,0-1.3,0.2-1.6,0.6s-0.5,1-0.5,1.9v3.6
			h-1.1v-7h0.9l0.2,1h0.1c0.2-0.3,0.5-0.6,0.9-0.8c0.4-0.2,0.8-0.3,1.3-0.3c0.8,0,1.5,0.2,1.9,0.6c0.4,0.4,0.6,1.1,0.6,1.9v4.5
			H195.7z"/>
		<path class="st6" d="M201.2,179.2c0.2,0,0.4,0,0.5,0c0.2,0,0.3-0.1,0.4-0.1v0.8c-0.1,0.1-0.3,0.1-0.5,0.1c-0.2,0-0.4,0.1-0.6,0.1
			c-1.3,0-2-0.7-2-2.1v-4.1h-1v-0.5l1-0.4l0.4-1.5h0.6v1.6h2v0.8h-2v4.1c0,0.4,0.1,0.7,0.3,1C200.6,179,200.8,179.2,201.2,179.2z"/>
		<path class="st6" d="M204.4,170.6l0.1,0.1c-0.1,0.4-0.3,0.9-0.5,1.5c-0.2,0.6-0.4,1.1-0.6,1.6h-0.8c0.3-1.2,0.5-2.3,0.6-3.2H204.4
			z"/>
		<path class="st6" d="M210.2,178c0,0.6-0.2,1.1-0.7,1.5s-1.2,0.5-2,0.5c-0.9,0-1.6-0.1-2.2-0.4v-1c0.3,0.2,0.7,0.3,1.1,0.4
			s0.8,0.1,1.1,0.1c0.6,0,1-0.1,1.3-0.3c0.3-0.2,0.4-0.4,0.4-0.8c0-0.3-0.1-0.5-0.4-0.7c-0.2-0.2-0.7-0.4-1.4-0.7
			c-0.6-0.2-1.1-0.5-1.4-0.6c-0.3-0.2-0.5-0.4-0.6-0.6c-0.1-0.2-0.2-0.5-0.2-0.8c0-0.6,0.2-1,0.7-1.3c0.5-0.3,1.1-0.5,1.9-0.5
			c0.7,0,1.5,0.2,2.2,0.5l-0.4,0.9c-0.7-0.3-1.3-0.4-1.9-0.4c-0.5,0-0.9,0.1-1.1,0.2s-0.4,0.4-0.4,0.6c0,0.2,0,0.3,0.1,0.5
			c0.1,0.1,0.2,0.3,0.5,0.4c0.2,0.1,0.6,0.3,1.2,0.5c0.8,0.3,1.4,0.6,1.7,0.9S210.2,177.5,210.2,178z"/>
		<path class="st6" d="M174.4,193c0,0.8-0.3,1.5-0.9,1.9s-1.4,0.7-2.4,0.7c-1.1,0-1.9-0.1-2.5-0.4v-1c0.4,0.2,0.8,0.3,1.2,0.4
			s0.9,0.1,1.3,0.1c0.7,0,1.3-0.1,1.6-0.4c0.4-0.3,0.5-0.7,0.5-1.1c0-0.3-0.1-0.6-0.2-0.8c-0.1-0.2-0.3-0.4-0.6-0.6
			c-0.3-0.2-0.8-0.4-1.4-0.6c-0.9-0.3-1.5-0.7-1.9-1.1c-0.4-0.4-0.6-1-0.6-1.7c0-0.7,0.3-1.3,0.8-1.7s1.2-0.6,2.1-0.6
			c0.9,0,1.8,0.2,2.5,0.5l-0.3,0.9c-0.8-0.3-1.5-0.5-2.2-0.5c-0.6,0-1,0.1-1.3,0.4s-0.5,0.6-0.5,1c0,0.3,0.1,0.6,0.2,0.8
			c0.1,0.2,0.3,0.4,0.6,0.6c0.3,0.2,0.7,0.4,1.3,0.6c1,0.3,1.6,0.7,2,1.1C174.2,191.9,174.4,192.4,174.4,193z"/>
		<path class="st6" d="M179.3,195.6c-0.5,0-0.9-0.1-1.2-0.3c-0.4-0.2-0.7-0.4-0.9-0.8h-0.1c0.1,0.4,0.1,0.8,0.1,1.2v2.9h-1.1v-10.1
			h0.9l0.1,1h0.1c0.3-0.4,0.6-0.7,0.9-0.8s0.8-0.3,1.2-0.3c0.9,0,1.6,0.3,2.1,0.9s0.8,1.5,0.8,2.7c0,1.1-0.3,2-0.8,2.7
			C180.9,195.3,180.2,195.6,179.3,195.6z M179.2,189.3c-0.7,0-1.2,0.2-1.5,0.6s-0.5,1-0.5,1.9v0.2c0,1,0.2,1.7,0.5,2.1
			c0.3,0.4,0.8,0.6,1.6,0.6c0.6,0,1.1-0.2,1.4-0.7c0.3-0.5,0.5-1.2,0.5-2c0-0.9-0.2-1.5-0.5-2C180.3,189.5,179.8,189.3,179.2,189.3z
			"/>
		<path class="st6" d="M187.2,188.4c0.3,0,0.6,0,0.8,0.1l-0.1,1c-0.3-0.1-0.5-0.1-0.8-0.1c-0.6,0-1,0.2-1.4,0.7
			c-0.4,0.5-0.6,1-0.6,1.7v3.7h-1.1v-7h0.9l0.1,1.3h0.1c0.3-0.5,0.6-0.8,0.9-1C186.4,188.5,186.8,188.4,187.2,188.4z"/>
		<path class="st6" d="M192.3,195.6c-1,0-1.8-0.3-2.4-0.9s-0.9-1.5-0.9-2.6c0-1.1,0.3-2,0.8-2.7c0.6-0.7,1.3-1,2.2-1
			c0.9,0,1.6,0.3,2.1,0.9c0.5,0.6,0.8,1.3,0.8,2.3v0.7h-4.8c0,0.8,0.2,1.4,0.6,1.9s0.9,0.6,1.7,0.6c0.8,0,1.5-0.2,2.2-0.5v0.9
			c-0.4,0.2-0.7,0.3-1.1,0.3C193.2,195.6,192.8,195.6,192.3,195.6z M192,189.3c-0.6,0-1,0.2-1.3,0.5s-0.5,0.9-0.6,1.5h3.6
			c0-0.7-0.1-1.2-0.4-1.5C193,189.5,192.6,189.3,192,189.3z"/>
		<path class="st6" d="M200.9,195.5l-0.2-1h-0.1c-0.3,0.4-0.7,0.7-1,0.9c-0.3,0.2-0.8,0.2-1.3,0.2c-0.7,0-1.2-0.2-1.6-0.5
			s-0.6-0.9-0.6-1.5c0-1.4,1.1-2.1,3.4-2.2l1.2,0v-0.4c0-0.5-0.1-0.9-0.4-1.2c-0.2-0.3-0.6-0.4-1.1-0.4c-0.6,0-1.2,0.2-2,0.5
			l-0.3-0.8c0.3-0.2,0.7-0.3,1.1-0.4s0.8-0.2,1.2-0.2c0.8,0,1.4,0.2,1.8,0.6c0.4,0.4,0.6,1,0.6,1.8v4.7H200.9z M198.6,194.8
			c0.7,0,1.2-0.2,1.5-0.5c0.4-0.4,0.6-0.9,0.6-1.5v-0.6l-1.1,0c-0.8,0-1.4,0.2-1.8,0.4c-0.4,0.2-0.6,0.6-0.6,1.1
			c0,0.4,0.1,0.7,0.3,0.9S198.1,194.8,198.6,194.8z"/>
		<path class="st6" d="M208.6,194.6L208.6,194.6c-0.5,0.7-1.3,1.1-2.2,1.1c-0.9,0-1.6-0.3-2.1-0.9s-0.8-1.5-0.8-2.7s0.3-2,0.8-2.7
			s1.2-1,2.1-1c0.9,0,1.7,0.3,2.2,1h0.1l0-0.5l0-0.5v-2.8h1.1v9.9h-0.9L208.6,194.6z M206.5,194.7c0.7,0,1.2-0.2,1.6-0.6
			c0.3-0.4,0.5-1,0.5-1.9V192c0-1-0.2-1.7-0.5-2.1c-0.3-0.4-0.9-0.6-1.6-0.6c-0.6,0-1.1,0.2-1.4,0.7c-0.3,0.5-0.5,1.2-0.5,2
			c0,0.9,0.2,1.6,0.5,2S205.9,194.7,206.5,194.7z"/>
		<path class="st6" d="M165.4,207.2v3.9h-1.1v-9.3h2.5c1.1,0,2,0.2,2.5,0.7c0.5,0.4,0.8,1.1,0.8,2c0,1.2-0.6,2.1-1.9,2.5l2.5,4.2
			h-1.3l-2.2-3.9H165.4z M165.4,206.3h1.5c0.8,0,1.3-0.2,1.7-0.5c0.4-0.3,0.5-0.8,0.5-1.4c0-0.6-0.2-1.1-0.5-1.3
			c-0.4-0.3-0.9-0.4-1.7-0.4h-1.4V206.3z"/>
		<path class="st6" d="M175.2,211.2c-1,0-1.8-0.3-2.4-0.9c-0.6-0.6-0.9-1.5-0.9-2.6c0-1.1,0.3-2,0.8-2.7c0.6-0.7,1.3-1,2.2-1
			c0.9,0,1.6,0.3,2.1,0.9c0.5,0.6,0.8,1.3,0.8,2.3v0.7H173c0,0.8,0.2,1.4,0.6,1.9c0.4,0.4,0.9,0.6,1.7,0.6c0.7,0,1.5-0.2,2.2-0.5
			v0.9c-0.4,0.2-0.7,0.3-1.1,0.3C176.1,211.2,175.7,211.2,175.2,211.2z M174.9,204.9c-0.6,0-1,0.2-1.3,0.5c-0.3,0.4-0.5,0.9-0.6,1.5
			h3.6c0-0.7-0.1-1.2-0.4-1.5C175.9,205.1,175.4,204.9,174.9,204.9z"/>
		<path class="st6" d="M181.1,211.1l-2.6-7h1.1l1.5,4.1c0.3,1,0.5,1.6,0.6,1.9h0.1c0-0.2,0.2-0.7,0.4-1.4c0.2-0.7,0.8-2.2,1.7-4.6
			h1.1l-2.6,7H181.1z"/>
		<path class="st6" d="M189,211.2c-1,0-1.8-0.3-2.4-0.9s-0.9-1.5-0.9-2.6c0-1.1,0.3-2,0.8-2.7c0.6-0.7,1.3-1,2.2-1
			c0.9,0,1.6,0.3,2.1,0.9c0.5,0.6,0.8,1.3,0.8,2.3v0.7h-4.8c0,0.8,0.2,1.4,0.6,1.9s0.9,0.6,1.7,0.6c0.8,0,1.5-0.2,2.2-0.5v0.9
			c-0.4,0.2-0.7,0.3-1.1,0.3C189.9,211.2,189.5,211.2,189,211.2z M188.7,204.9c-0.6,0-1,0.2-1.3,0.5s-0.5,0.9-0.6,1.5h3.6
			c0-0.7-0.1-1.2-0.4-1.5C189.7,205.1,189.3,204.9,188.7,204.9z"/>
		<path class="st6" d="M198.1,211.1v-4.5c0-0.6-0.1-1-0.4-1.3c-0.3-0.3-0.7-0.4-1.2-0.4c-0.7,0-1.3,0.2-1.6,0.6s-0.5,1-0.5,1.9v3.6
			h-1.1v-7h0.9l0.2,1h0.1c0.2-0.3,0.5-0.6,0.9-0.8c0.4-0.2,0.8-0.3,1.3-0.3c0.8,0,1.5,0.2,1.9,0.6c0.4,0.4,0.6,1.1,0.6,1.9v4.5
			H198.1z"/>
		<path class="st6" d="M202.3,204.1v4.5c0,0.6,0.1,1,0.4,1.3c0.3,0.3,0.7,0.4,1.2,0.4c0.7,0,1.3-0.2,1.6-0.6c0.3-0.4,0.5-1,0.5-1.9
			v-3.7h1.1v7h-0.9l-0.2-0.9H206c-0.2,0.3-0.5,0.6-0.9,0.8s-0.8,0.3-1.3,0.3c-0.8,0-1.5-0.2-1.9-0.6s-0.6-1-0.6-1.9v-4.6H202.3z"/>
		<path class="st6" d="M212.2,211.2c-1,0-1.8-0.3-2.4-0.9s-0.9-1.5-0.9-2.6c0-1.1,0.3-2,0.8-2.7c0.6-0.7,1.3-1,2.2-1
			c0.9,0,1.6,0.3,2.1,0.9c0.5,0.6,0.8,1.3,0.8,2.3v0.7H210c0,0.8,0.2,1.4,0.6,1.9s0.9,0.6,1.7,0.6c0.8,0,1.5-0.2,2.2-0.5v0.9
			c-0.4,0.2-0.7,0.3-1.1,0.3C213.1,211.2,212.7,211.2,212.2,211.2z M212,204.9c-0.6,0-1,0.2-1.3,0.5s-0.5,0.9-0.6,1.5h3.6
			c0-0.7-0.1-1.2-0.4-1.5C212.9,205.1,212.5,204.9,212,204.9z"/>
	</g>
</g>
</svg>
