<?xml version="1.0" encoding="UTF-8"?>
<svg width="12px" height="19px" viewBox="0 0 12 19" version="1.1" xmlns="http://www.w3.org/2000/svg" xmlns:xlink="http://www.w3.org/1999/xlink">
    <!-- Generator: sketchtool 46.2 (44496) - http://www.bohemiancoding.com/sketch -->
    <title>013B9631-4D33-4B42-8DE1-0D586018B678</title>
    <desc>Created with sketchtool.</desc>
    <defs></defs>
    <g id="UI_web" stroke="none" stroke-width="1" fill="none" fill-rule="evenodd">
        <g id="Jewelry-case-landing" transform="translate(-1483.000000, -5563.000000)" fill-rule="nonzero" fill="#FFFFFF">
            <g id="Group-2" transform="translate(0.000000, 5533.000000)">
                <g id="Group-9" transform="translate(1468.000000, 19.000000)">
                    <g id="Group-17">
                        <g id="Group-22">
                            <path d="M15.1515966,17.3542567 C15.2517117,17.4540176 15.3875719,17.5100732 15.5292444,17.5100732 C15.6709169,17.5100732 15.8067771,17.4540176 15.9068923,17.3542567 L20.4688781,12.8140701 L20.4688781,29.5416007 C20.5054003,29.8043399 20.7310701,30 20.9975851,30 C21.2641001,30 21.4897699,29.8043399 21.5262921,29.5416007 L21.5262921,12.8140701 L26.0882779,17.3542567 C26.2968472,17.5618287 26.6350042,17.5618285 26.8435731,17.3542562 C27.0521421,17.1466839 27.0521423,16.8101427 26.8435736,16.6025702 L21.3752329,11.1603598 C21.2770998,11.0601495 21.1431993,11.0025233 21.0026204,11 C20.8618033,11.0014174 20.7274944,11.0592194 20.6300079,11.1603598 L15.1616672,16.6025702 C15.0600808,16.7008704 15.0019365,16.8353362 15.0000475,16.9763356 C14.9981585,17.117335 15.0526798,17.2532958 15.1515966,17.3542567 L15.1515966,17.3542567 Z" id="Shape"></path>
                        </g>
                    </g>
                </g>
            </g>
        </g>
    </g>
</svg>