<?xml version="1.0" encoding="UTF-8"?>
<svg width="32px" height="32px" viewBox="0 0 32 32" version="1.1" xmlns="http://www.w3.org/2000/svg" xmlns:xlink="http://www.w3.org/1999/xlink">
    <!-- Generator: Sketch 47 (45396) - http://www.bohemiancoding.com/sketch -->
    <title>icon-34</title>
    <desc>Created with Sketch.</desc>
    <defs></defs>
    <g id="Landing-Pages" stroke="none" stroke-width="1" fill="none" fill-rule="evenodd" stroke-linecap="round" stroke-linejoin="round">
        <g id="IB-Lander-2-Mobile" transform="translate(-169.000000, -3447.000000)" stroke="#D7559F" stroke-width="2">
            <g id="Section" transform="translate(0.000000, 2760.000000)">
                <g id="Block-1" transform="translate(20.000000, 568.000000)">
                    <g id="Card" transform="translate(0.000000, 80.000000)">
                        <g id="icon-34" transform="translate(150.000000, 40.000000)">
                            <path d="M30,15 C30,23.284 23.284,30 15,30 C6.716,30 0,23.284 0,15 C0,6.716 6.716,0 15,0 C23.284,0 30,6.716 30,15 Z" id="Stroke-1"></path>
                            <path d="M15,15 L15,7" id="Stroke-3"></path>
                            <path d="M15,15 L20.657,20.657" id="Stroke-5"></path>
                            <path d="M15,0 L15,2" id="Stroke-7"></path>
                            <path d="M15,28 L15,30" id="Stroke-9"></path>
                            <path d="M30,15 L28,15" id="Stroke-11"></path>
                            <path d="M2,15 L0,15" id="Stroke-13"></path>
                        </g>
                    </g>
                </g>
            </g>
        </g>
    </g>
</svg>