<?xml version="1.0" encoding="UTF-8"?>
<svg width="151px" height="61px" viewBox="0 0 151 61" version="1.1" xmlns="http://www.w3.org/2000/svg" xmlns:xlink="http://www.w3.org/1999/xlink">
    <!-- Generator: sketchtool 46.2 (44496) - http://www.bohemiancoding.com/sketch -->
    <title>9C11C405-3A66-49BB-8030-50042389CF5C</title>
    <desc>Created with sketchtool.</desc>
    <defs>
        <filter x="-1.4%" y="-28.1%" width="102.8%" height="156.2%" filterUnits="objectBoundingBox" id="filter-1">
            <feOffset dx="0" dy="0" in="SourceAlpha" result="shadowOffsetOuter1"></feOffset>
            <feGaussianBlur stdDeviation="7.5" in="shadowOffsetOuter1" result="shadowBlurOuter1"></feGaussianBlur>
            <feColorMatrix values="0 0 0 0 0   0 0 0 0 0   0 0 0 0 0  0 0 0 0.1 0" type="matrix" in="shadowBlurOuter1" result="shadowMatrixOuter1"></feColorMatrix>
            <feMerge>
                <feMergeNode in="shadowMatrixOuter1"></feMergeNode>
                <feMergeNode in="SourceGraphic"></feMergeNode>
            </feMerge>
        </filter>
    </defs>
    <g id="UI_web" stroke="none" stroke-width="1" fill="none" fill-rule="evenodd">
        <g id="Jewelry-case-landing" transform="translate(-724.000000, -10.000000)">
            <g id="Top-menu">
                <g id="Header" filter="url(#filter-1)">
                    <g id="Devabit-logo" transform="translate(738.000000, 23.000000)">
                        <path d="M3.4034,18.3649 C3.4034,19.5449 3.6304,20.4859 4.0824,21.1859 C4.5354,21.8859 5.2534,22.2369 6.2374,22.2369 C6.8424,22.2369 7.3564,22.1069 7.7774,21.8469 C8.1984,21.5879 8.5434,21.2179 8.8104,20.7379 L8.8104,15.1659 C8.5434,14.6939 8.1964,14.3249 7.7714,14.0619 C7.3464,13.7979 6.8424,13.6669 6.2604,13.6669 C5.2844,13.6669 4.5644,14.0779 4.1004,14.8999 C3.6354,15.7219 3.4034,16.7949 3.4034,18.1169 L3.4034,18.3649 Z M0.5354,18.1169 C0.5354,16.0789 0.9714,14.4359 1.8454,13.1879 C2.7184,11.9409 3.9464,11.3169 5.5284,11.3169 C6.2204,11.3169 6.8414,11.4569 7.3874,11.7369 C7.9344,12.0159 8.4094,12.4149 8.8104,12.9349 L8.8104,5.9109 L11.6784,5.9109 L11.6784,24.3259 L9.3534,24.3259 L9.0104,22.7089 C8.6014,23.3149 8.1064,23.7779 7.5234,24.0959 C6.9414,24.4149 6.2684,24.5739 5.5054,24.5739 C3.9384,24.5739 2.7184,24.0039 1.8454,22.8629 C0.9714,21.7209 0.5354,20.2219 0.5354,18.3649 L0.5354,18.1169 Z" id="Fill-12" fill="#182428"></path>
                        <path d="M20.1134,13.6193 C19.3664,13.6193 18.7674,13.8893 18.3194,14.4283 C17.8704,14.9673 17.5914,15.6693 17.4814,16.5353 L17.5054,16.5943 L22.4984,16.5943 L22.4984,16.3693 C22.4984,15.5513 22.3074,14.8883 21.9254,14.3803 C21.5444,13.8733 20.9394,13.6193 20.1134,13.6193 M20.4214,24.5743 C18.5554,24.5743 17.0974,23.9863 16.0474,22.8093 C14.9964,21.6333 14.4704,20.1083 14.4704,18.2353 L14.4704,17.7633 C14.4704,15.8903 14.9964,14.3453 16.0474,13.1293 C17.0974,11.9133 18.4534,11.3093 20.1134,11.3173 C21.8294,11.3173 23.1284,11.8463 24.0094,12.9053 C24.8904,13.9633 25.3314,15.3783 25.3314,17.1493 L25.3314,18.6953 L17.4334,18.6953 L17.4104,18.7543 C17.4414,19.8013 17.7174,20.6513 18.2364,21.3043 C18.7564,21.9573 19.5394,22.2843 20.5864,22.2843 C21.3654,22.2843 22.0404,22.1893 22.6104,22.0003 C23.1804,21.8113 23.7104,21.5403 24.1984,21.1863 L25.1314,23.0633 C24.6424,23.4883 23.9974,23.8463 23.1944,24.1373 C22.3914,24.4283 21.4674,24.5743 20.4214,24.5743" id="Fill-14" fill="#182428"></path>
                        <polygon id="Fill-16" fill="#182428" points="32.1837 20.0055 32.3967 21.0445 32.4667 21.0445 32.6917 20.0055 35.2297 11.5535 38.1927 11.5535 33.6597 24.3265 31.1687 24.3265 26.6127 11.5535 29.5757 11.5535"></polygon>
                        <path d="M44.255,22.2721 C44.971,22.2721 45.618,22.0911 46.196,21.7291 C46.775,21.3671 47.158,20.9541 47.348,20.4891 L47.348,18.6011 L45.069,18.6011 C44.234,18.6011 43.582,18.8071 43.109,19.2201 C42.637,19.6341 42.401,20.1201 42.401,20.6781 C42.401,21.1671 42.561,21.5541 42.879,21.8411 C43.198,22.1281 43.656,22.2721 44.255,22.2721 L44.255,22.2721 Z M47.761,24.3261 C47.658,24.0031 47.573,23.6891 47.507,23.3821 C47.44,23.0751 47.395,22.7681 47.371,22.4611 C46.985,23.0591 46.47,23.5611 45.824,23.9661 C45.179,24.3711 44.459,24.5741 43.664,24.5741 C42.334,24.5741 41.314,24.2311 40.601,23.5471 C39.889,22.8621 39.532,21.9221 39.532,20.7261 C39.532,19.4901 40.021,18.5281 40.996,17.8391 C41.972,17.1511 43.346,16.8061 45.116,16.8061 L47.348,16.8061 L47.348,15.6851 C47.348,15.0161 47.152,14.4931 46.763,14.1151 C46.373,13.7371 45.809,13.5481 45.069,13.5481 C44.416,13.5481 43.897,13.7041 43.511,14.0151 C43.125,14.3251 42.933,14.7291 42.933,15.2251 L40.17,15.2361 L40.158,15.1661 C40.104,14.1581 40.554,13.2651 41.51,12.4861 C42.466,11.7071 43.711,11.3171 45.246,11.3171 C46.734,11.3171 47.934,11.6951 48.847,12.4501 C49.76,13.2061 50.216,14.2921 50.216,15.7091 L50.216,21.3871 C50.216,21.9141 50.251,22.4191 50.322,22.9041 C50.393,23.3881 50.507,23.8621 50.664,24.3261 L47.761,24.3261 Z" id="Fill-18" fill="#182428"></path>
                        <path d="M61.8029,18.1168 C61.8029,16.7868 61.5739,15.7128 61.1169,14.8938 C60.6609,14.0758 59.9379,13.6668 58.9459,13.6668 C58.3079,13.6668 57.7759,13.8078 57.3459,14.0918 C56.9169,14.3748 56.5769,14.7678 56.3249,15.2718 L56.3249,20.6318 C56.5689,21.1428 56.9069,21.5378 57.3399,21.8178 C57.7729,22.0968 58.3169,22.2368 58.9689,22.2368 C59.9609,22.2368 60.6809,21.8878 61.1299,21.1918 C61.5779,20.4958 61.8029,19.5528 61.8029,18.3648 L61.8029,18.1168 Z M64.6709,18.3648 C64.6709,20.2298 64.2369,21.7308 63.3659,22.8678 C62.4969,24.0058 61.2719,24.5738 59.6899,24.5738 C58.8869,24.5738 58.1909,24.4088 57.5999,24.0778 C57.0099,23.7478 56.5179,23.2678 56.1239,22.6378 L55.7819,24.3258 L53.4559,24.3258 L53.4559,5.9108 L56.3249,5.9108 L56.3249,13.0058 C56.7189,12.4628 57.1909,12.0448 57.7409,11.7538 C58.2919,11.4628 58.9339,11.3168 59.6659,11.3168 C61.2639,11.3168 62.4969,11.9388 63.3659,13.1818 C64.2369,14.4258 64.6709,16.0708 64.6709,18.1168 L64.6709,18.3648 Z" id="Fill-20" fill="#182428"></path>
                        <polygon id="Fill-22" fill="#E65B47" points="67.579 8.425 70.447 8.425 70.447 5.911 67.579 5.911"></polygon>
                        <polygon id="Fill-24" fill="#182428" points="67.579 24.326 70.447 24.326 70.447 11.553 67.579 11.553"></polygon>
                        <path d="M77.5714,8.4488 L77.5714,11.5528 L79.8614,11.5528 L79.8614,13.6778 L77.5714,13.6778 L77.5714,20.7378 C77.5714,21.2648 77.6854,21.6408 77.9144,21.8648 C78.1424,22.0888 78.4454,22.2008 78.8234,22.2008 C78.9804,22.2008 79.1334,22.1878 79.2834,22.1598 C79.4324,22.1328 79.5744,22.0948 79.7084,22.0478 L80.0154,24.1488 C79.7714,24.2828 79.4824,24.3868 79.1474,24.4618 C78.8134,24.5368 78.4654,24.5738 78.1024,24.5738 C77.0484,24.5738 76.2194,24.2648 75.6184,23.6478 C75.0154,23.0298 74.7154,22.0598 74.7154,20.7378 L74.7154,13.6778 L72.7664,13.6778 L72.7664,11.5528 L74.7154,11.5528 L74.7154,8.4488 L77.5714,8.4488 Z" id="Fill-25" fill="#182428"></path>
                        <path d="M107.112,3.709 L107.639,3.709 L107.639,2.652 L107.112,2.652 L107.112,3.709 Z M107.112,5.822 L107.639,5.822 L107.639,4.765 L107.112,4.765 L107.112,5.822 Z M107.112,7.942 L107.639,7.942 L107.639,6.885 L107.112,6.885 L107.112,7.942 Z M107.112,10.061 L107.639,10.061 L107.639,9.005 L107.112,9.005 L107.112,10.061 Z M107.112,12.173 L107.639,12.173 L107.639,11.117 L107.112,11.117 L107.112,12.173 Z M107.112,14.293 L107.639,14.293 L107.639,13.236 L107.112,13.236 L107.112,14.293 Z M107.112,16.412 L107.639,16.412 L107.639,15.356 L107.112,15.356 L107.112,16.412 Z M107.112,18.525 L107.639,18.525 L107.639,17.469 L107.112,17.469 L107.112,18.525 Z M107.112,20.645 L107.639,20.645 L107.639,19.588 L107.112,19.588 L107.112,20.645 Z M107.112,22.764 L107.639,22.764 L107.639,21.708 L107.112,21.708 L107.112,22.764 Z M107.112,24.877 L107.639,24.877 L107.639,23.821 L107.112,23.821 L107.112,24.877 Z M107.112,26.996 L107.639,26.996 L107.639,25.939 L107.112,25.939 L107.112,26.996 Z M107.112,29.109 L107.639,29.109 L107.639,28.052 L107.112,28.052 L107.112,29.109 Z M107.112,31.228 L107.639,31.228 L107.639,30.172 L107.112,30.172 L107.112,31.228 Z M107.112,32.674 L107.639,32.674 L107.639,32.284 L107.112,32.284 L107.112,32.674 Z" id="Fill-26" fill="#BCBCBC"></path>
                        <path d="M106.3322,3.1808 L106.0942,2.7118 L106.1672,2.6728 L106.4042,3.1408 L106.3322,3.1808 Z M104.3242,4.1978 L104.0872,3.7288 L105.0912,3.2208 L105.3282,3.6888 L104.3242,4.1978 Z M102.3242,5.2148 L102.0862,4.7458 L103.0902,4.2378 L103.3282,4.7058 L102.3242,5.2148 Z M100.3172,6.2308 L100.0792,5.7628 L101.0832,5.2538 L101.3202,5.7228 L100.3172,6.2308 Z M98.3162,7.2478 L98.0792,6.7798 L99.0822,6.2708 L99.3202,6.7398 L98.3162,7.2478 Z M96.3102,8.2648 L96.0712,7.7958 L97.0752,7.2878 L97.3122,7.7568 L96.3102,8.2648 Z M94.3092,9.2818 L94.0712,8.8128 L95.0742,8.3048 L95.3122,8.7728 L94.3092,9.2818 Z" id="Fill-27" fill="#BCBCBC"></path>
                        <path d="M109.3361,3.6564 L108.3391,3.1354 L108.5831,2.6664 L109.5801,3.1874 L109.3361,3.6564 Z M111.3301,4.6994 L110.3331,4.1774 L110.5771,3.7094 L111.5741,4.2304 L111.3301,4.6994 Z M113.3241,5.7364 L112.3271,5.2144 L112.5711,4.7454 L113.5681,5.2674 L113.3241,5.7364 Z M115.3121,6.7794 L114.3151,6.2574 L114.5591,5.7884 L115.5561,6.3104 L115.3121,6.7794 Z M117.3051,7.8164 L116.3091,7.2944 L116.5531,6.8254 L117.5501,7.3474 L117.3051,7.8164 Z M119.2991,8.8524 L118.3021,8.3304 L118.5471,7.8624 L119.5431,8.3844 L119.2991,8.8524 Z" id="Fill-28" fill="#BCBCBC"></path>
                        <path d="M119.4972,10.7867 L119.2332,10.3307 L120.0982,9.8227 L120.3622,10.2787 L119.4972,10.7867 Z M117.7612,11.8037 L117.4972,11.3487 L118.3612,10.8397 L118.6262,11.2957 L117.7612,11.8037 Z M116.0242,12.8137 L115.7602,12.3587 L116.6252,11.8497 L116.8902,12.3057 L116.0242,12.8137 Z M114.2942,13.8247 L114.0302,13.3687 L114.8952,12.8597 L115.1592,13.3157 L114.2942,13.8247 Z M112.5582,14.8337 L112.2942,14.3787 L113.1592,13.8697 L113.4232,14.3257 L112.5582,14.8337 Z M110.8212,15.8507 L110.5582,15.3957 L111.4222,14.8877 L111.6862,15.3427 L110.8212,15.8507 Z M109.0922,16.8617 L108.8272,16.4057 L109.6922,15.8967 L109.9572,16.3527 L109.0922,16.8617 Z" id="Fill-29" fill="#BCBCBC"></path>
                        <path d="M94.2892,10.4171 L94.0582,10.2851 L94.3152,9.8231 L94.5462,9.9551 L94.2892,10.4171 Z M96.0382,11.4081 L95.1672,10.9121 L95.4252,10.4501 L96.2962,10.9451 L96.0382,11.4081 Z M97.7882,12.3911 L96.9172,11.8961 L97.1742,11.4341 L98.0462,11.9291 L97.7882,12.3911 Z M99.5312,13.3821 L98.6602,12.8861 L98.9172,12.4241 L99.7892,12.9191 L99.5312,13.3821 Z M101.2812,14.3721 L100.4092,13.8771 L100.6672,13.4151 L101.5382,13.9101 L101.2812,14.3721 Z M103.0302,15.3561 L102.1592,14.8611 L102.4172,14.3981 L103.2882,14.8941 L103.0302,15.3561 Z M104.7802,16.3461 L103.9082,15.8511 L104.1662,15.3891 L105.0382,15.8841 L104.7802,16.3461 Z M106.5302,17.3361 L105.6582,16.8411 L105.9162,16.3791 L106.7872,16.8751 L106.5302,17.3361 Z" id="Fill-30" fill="#BCBCBC"></path>
                        <path d="M121.056,10.569 L121.584,10.569 L121.584,9.566 L121.056,9.566 L121.056,10.569 Z M121.056,12.576 L121.584,12.576 L121.584,11.573 L121.056,11.573 L121.056,12.576 Z M121.056,14.584 L121.584,14.584 L121.584,13.58 L121.056,13.58 L121.056,14.584 Z M121.056,16.59 L121.584,16.59 L121.584,15.587 L121.056,15.587 L121.056,16.59 Z M121.056,18.604 L121.584,18.604 L121.584,17.601 L121.056,17.601 L121.056,18.604 Z M121.056,20.611 L121.584,20.611 L121.584,19.608 L121.056,19.608 L121.056,20.611 Z M121.056,22.619 L121.584,22.619 L121.584,21.615 L121.056,21.615 L121.056,22.619 Z M121.056,24.626 L121.584,24.626 L121.584,23.623 L121.056,23.623 L121.056,24.626 Z M121.056,26.204 L121.584,26.204 L121.584,25.63 L121.056,25.63 L121.056,26.204 Z" id="Fill-31" fill="#BCBCBC"></path>
                        <path d="M93.166,10.569 L93.694,10.569 L93.694,9.566 L93.166,9.566 L93.166,10.569 Z M93.166,12.576 L93.694,12.576 L93.694,11.573 L93.166,11.573 L93.166,12.576 Z M93.166,14.584 L93.694,14.584 L93.694,13.58 L93.166,13.58 L93.166,14.584 Z M93.166,16.59 L93.694,16.59 L93.694,15.587 L93.166,15.587 L93.166,16.59 Z M93.166,18.604 L93.694,18.604 L93.694,17.601 L93.166,17.601 L93.166,18.604 Z M93.166,20.611 L93.694,20.611 L93.694,19.608 L93.166,19.608 L93.166,20.611 Z M93.166,22.619 L93.694,22.619 L93.694,21.615 L93.166,21.615 L93.166,22.619 Z M93.166,24.626 L93.694,24.626 L93.694,23.623 L93.166,23.623 L93.166,24.626 Z M93.166,26.204 L93.694,26.204 L93.694,25.63 L93.166,25.63 L93.166,26.204 Z" id="Fill-32" fill="#BCBCBC"></path>
                        <path d="M104.9054,18.9542 L104.6684,18.4792 L105.6654,17.9702 L105.9024,18.4392 L104.9054,18.9542 Z M102.9054,19.9642 L102.6674,19.4962 L103.6644,18.9872 L103.9024,19.4562 L102.9054,19.9642 Z M100.9044,20.9812 L100.6674,20.5122 L101.6644,20.0042 L101.9014,20.4732 L100.9044,20.9812 Z M98.9044,21.9982 L98.6664,21.5292 L99.6634,21.0202 L99.9014,21.4902 L98.9044,21.9982 Z M96.9034,23.0152 L96.6664,22.5462 L97.6634,22.0372 L97.9004,22.5062 L96.9034,23.0152 Z M94.9034,24.0322 L94.6654,23.5622 L95.6624,23.0542 L95.8994,23.5232 L94.9034,24.0322 Z" id="Fill-33" fill="#BCBCBC"></path>
                        <path d="M109.6066,18.9542 L108.6096,18.4462 L108.8476,17.9772 L109.8446,18.4852 L109.6066,18.9542 Z M111.6076,19.9642 L110.6106,19.4562 L110.8476,18.9872 L111.8446,19.4962 L111.6076,19.9642 Z M113.6076,20.9812 L112.6106,20.4732 L112.8486,20.0042 L113.8456,20.5122 L113.6076,20.9812 Z M115.6086,21.9982 L114.6116,21.4902 L114.8486,21.0202 L115.8456,21.5292 L115.6086,21.9982 Z M117.6086,23.0152 L116.6126,22.5062 L116.8496,22.0372 L117.8466,22.5462 L117.6086,23.0152 Z M119.6096,24.0322 L118.6126,23.5232 L118.8506,23.0542 L119.8466,23.5622 L119.6096,24.0322 Z" id="Fill-34" fill="#BCBCBC"></path>
                        <path d="M119.1407,26.0455 L118.8767,25.5895 L119.7477,25.0815 L120.0117,25.5375 L119.1407,26.0455 Z M117.4047,27.0625 L117.1397,26.6065 L118.0117,26.0985 L118.2757,26.5535 L117.4047,27.0625 Z M115.6677,28.0725 L115.4037,27.6165 L116.2757,27.1085 L116.5387,27.5645 L115.6677,28.0725 Z M113.9247,29.0885 L113.6607,28.6335 L114.5327,28.1255 L114.7957,28.5805 L113.9247,29.0885 Z M112.1887,30.0995 L111.9237,29.6435 L112.7957,29.1355 L113.0597,29.5905 L112.1887,30.0995 Z M110.4527,31.1165 L110.1877,30.6605 L111.0597,30.1515 L111.3237,30.6075 L110.4527,31.1165 Z M108.7147,32.1265 L108.4517,31.6705 L109.3227,31.1625 L109.5867,31.6175 L108.7147,32.1265 Z" id="Fill-35" fill="#BCBCBC"></path>
                        <path d="M94.2365,25.3854 L94.0715,25.2924 L94.3355,24.8374 L94.5005,24.9294 L94.2365,25.3854 Z M95.9795,26.3824 L95.1075,25.8804 L95.3725,25.4254 L96.2435,25.9264 L95.9795,26.3824 Z M97.7215,27.3854 L96.8505,26.8844 L97.1145,26.4284 L97.9865,26.9304 L97.7215,27.3854 Z M99.4715,28.3824 L98.6005,27.8814 L98.8645,27.4254 L99.7365,27.9274 L99.4715,28.3824 Z M101.2155,29.3864 L100.3435,28.8844 L100.6075,28.4284 L101.4785,28.9304 L101.2155,29.3864 Z M102.9585,30.3834 L102.0865,29.8814 L102.3505,29.4264 L103.2215,29.9274 L102.9585,30.3834 Z M104.7085,31.3864 L103.8365,30.8854 L104.1005,30.4294 L104.9715,30.9314 L104.7085,31.3864 Z M106.4505,32.3844 L105.5795,31.8824 L105.8425,31.4264 L106.7155,31.9284 L106.4505,32.3844 Z" id="Fill-36" fill="#BCBCBC"></path>
                        <path d="M121.3195,24.17 C122.3115,24.17 123.1155,24.974 123.1155,25.966 C123.1155,26.958 122.3115,27.762 121.3195,27.762 C120.3285,27.762 119.5235,26.958 119.5235,25.966 C119.5235,24.974 120.3285,24.17 121.3195,24.17" id="Fill-37" fill="#E81241"></path>
                        <path d="M93.4308,24.17 C94.4218,24.17 95.2268,24.974 95.2268,25.966 C95.2268,26.958 94.4218,27.762 93.4308,27.762 C92.4388,27.762 91.6348,26.958 91.6348,25.966 C91.6348,24.974 92.4388,24.17 93.4308,24.17" id="Fill-38" fill="#E81241"></path>
                        <path d="M107.3751,15.6661 C108.3671,15.6661 109.1711,16.4701 109.1711,17.4621 C109.1711,18.4541 108.3671,19.2581 107.3751,19.2581 C106.3831,19.2581 105.5791,18.4541 105.5791,17.4621 C105.5791,16.4701 106.3831,15.6661 107.3751,15.6661" id="Fill-39" fill="#E81241"></path>
                        <path d="M107.3751,0.4542 C108.3671,0.4542 109.1711,1.2582 109.1711,2.2502 C109.1711,3.2422 108.3671,4.0462 107.3751,4.0462 C106.3831,4.0462 105.5791,3.2422 105.5791,2.2502 C105.5791,1.2582 106.3831,0.4542 107.3751,0.4542" id="Fill-40" fill="#E81241"></path>
                        <path d="M107.3751,30.6671 C108.3671,30.6671 109.1711,31.4711 109.1711,32.4631 C109.1711,33.4551 108.3671,34.2591 107.3751,34.2591 C106.3831,34.2591 105.5791,33.4551 105.5791,32.4631 C105.5791,31.4711 106.3831,30.6671 107.3751,30.6671" id="Fill-41" fill="#E81241"></path>
                        <path d="M93.4308,7.5319 C94.4218,7.5319 95.2268,8.3359 95.2268,9.3279 C95.2268,10.3199 94.4218,11.1239 93.4308,11.1239 C92.4388,11.1239 91.6348,10.3199 91.6348,9.3279 C91.6348,8.3359 92.4388,7.5319 93.4308,7.5319" id="Fill-42" fill="#E81241"></path>
                        <path d="M121.3195,7.5319 C122.3115,7.5319 123.1155,8.3359 123.1155,9.3279 C123.1155,10.3199 122.3115,11.1239 121.3195,11.1239 C120.3285,11.1239 119.5235,10.3199 119.5235,9.3279 C119.5235,8.3359 120.3285,7.5319 121.3195,7.5319" id="Fill-43" fill="#E81241"></path>
                        <polygon id="Fill-62" fill="#E65B47" points="67.579 8.425 70.447 8.425 70.447 5.911 67.579 5.911"></polygon>
                        <polygon id="Fill-64" fill="#E65B47" points="67.579 8.425 70.447 8.425 70.447 5.911 67.579 5.911"></polygon>
                        <polygon id="Fill-65" fill="#E65B47" points="67.579 8.425 70.447 8.425 70.447 5.911 67.579 5.911"></polygon>
                        <polygon id="Fill-66" fill="#E65B47" points="67.579 8.425 70.447 8.425 70.447 5.911 67.579 5.911"></polygon>
                        <polygon id="Fill-70" fill="#E65B47" points="67.579 8.425 70.447 8.425 70.447 5.911 67.579 5.911"></polygon>
                        <polygon id="Fill-71" fill="#E65B47" points="67.579 8.425 70.447 8.425 70.447 5.911 67.579 5.911"></polygon>
                    </g>
                </g>
            </g>
        </g>
    </g>
</svg>