<?xml version="1.0" encoding="UTF-8"?>
<svg width="32px" height="32px" viewBox="0 0 32 32" version="1.1" xmlns="http://www.w3.org/2000/svg" xmlns:xlink="http://www.w3.org/1999/xlink">
    <!-- Generator: Sketch 47 (45396) - http://www.bohemiancoding.com/sketch -->
    <title>icon-23</title>
    <desc>Created with Sketch.</desc>
    <defs></defs>
    <g id="Landing-Pages" stroke="none" stroke-width="1" fill="none" fill-rule="evenodd" stroke-linecap="round" stroke-linejoin="round">
        <g id="IB-Lander2" transform="translate(-304.000000, -3468.000000)" stroke="#D7559F" stroke-width="2">
            <g id="Section" transform="translate(0.000000, 2543.000000)">
                <g id="Block-1" transform="translate(140.000000, 809.000000)">
                    <g id="Card" transform="translate(0.000000, 77.000000)">
                        <g id="icon-23" transform="translate(165.000000, 40.000000)">
                            <path d="M4,22 L4,22 C1.791,22 0,20.209 0,18 L0,14 C0,11.791 1.791,10 4,10 L4,22 Z" id="Stroke-1"></path>
                            <path d="M26,22 L26,22 L26,10 C28.209,10 30,11.791 30,14 L30,18 C30,20.209 28.209,22 26,22 Z" id="Stroke-3"></path>
                            <path d="M26,10 L26,10 C26,4.477 21.522,0 16,0 L14,0 C8.478,0 4,4.477 4,10" id="Stroke-5"></path>
                            <path d="M26,22 C26,22 25.901,24.262 24.033,25.89 C21.612,28 19.451,28 17,28" id="Stroke-7"></path>
                            <path d="M17,28 C17,29.104 16.104,30 15,30 C13.896,30 13,29.104 13,28 C13,26.896 13.896,26 15,26 C16.104,26 17,26.896 17,28 Z" id="Stroke-9"></path>
                        </g>
                    </g>
                </g>
            </g>
        </g>
    </g>
</svg>