<?xml version="1.0" encoding="UTF-8"?>
<svg width="45px" height="45px" viewBox="0 0 45 45" version="1.1" xmlns="http://www.w3.org/2000/svg" xmlns:xlink="http://www.w3.org/1999/xlink">
    <!-- Generator: sketchtool 46.2 (44496) - http://www.bohemiancoding.com/sketch -->
    <title>D2600E6D-FE43-4036-85B5-7E352D357630</title>
    <desc>Created with sketchtool.</desc>
    <defs>
        <filter x="-1.4%" y="-28.1%" width="102.8%" height="156.2%" filterUnits="objectBoundingBox" id="filter-1">
            <feOffset dx="0" dy="0" in="SourceAlpha" result="shadowOffsetOuter1"></feOffset>
            <feGaussianBlur stdDeviation="7.5" in="shadowOffsetOuter1" result="shadowBlurOuter1"></feGaussianBlur>
            <feColorMatrix values="0 0 0 0 0   0 0 0 0 0   0 0 0 0 0  0 0 0 0.1 0" type="matrix" in="shadowBlurOuter1" result="shadowMatrixOuter1"></feColorMatrix>
            <feMerge>
                <feMergeNode in="shadowMatrixOuter1"></feMergeNode>
                <feMergeNode in="SourceGraphic"></feMergeNode>
            </feMerge>
        </filter>
    </defs>
    <g id="UI_web" stroke="none" stroke-width="1" fill="none" fill-rule="evenodd">
        <g id="Jewelry-case-landing" transform="translate(-1367.000000, -18.000000)" fill="#B2B2B2">
            <g id="Top-menu">
                <g id="Header" filter="url(#filter-1)">
                    <g id="linkedin" transform="translate(1381.000000, 32.000000)">
                        <path d="M4.253,5 L1.242,5 C1.108,5 1,5.115 1,5.258 L1,15.577 C1,15.72 1.108,15.835 1.242,15.835 L4.253,15.835 C4.387,15.835 4.495,15.72 4.495,15.577 L4.495,5.258 C4.495,5.115 4.387,5 4.253,5" id="Fill-54"></path>
                        <path d="M1.987,0 C0.891,0 0,0.95 0,2.117 C0,3.285 0.891,4.235 1.987,4.235 C3.082,4.235 3.972,3.285 3.972,2.117 C3.972,0.95 3.082,0 1.987,0" id="Fill-56"></path>
                        <path d="M12.014,5 C10.804,5 9.91,5.555 9.368,6.185 L9.368,5.515 C9.368,5.372 9.259,5.256 9.126,5.256 L6.243,5.256 C6.109,5.256 6,5.372 6,5.515 L6,15.833 C6,15.976 6.109,16.091 6.243,16.091 L9.246,16.091 C9.38,16.091 9.489,15.976 9.489,15.833 L9.489,10.728 C9.489,9.007 9.927,8.337 11.051,8.337 C12.276,8.337 12.373,9.412 12.373,10.816 L12.373,15.833 C12.373,15.976 12.482,16.091 12.615,16.091 L15.62,16.091 C15.754,16.091 15.863,15.976 15.863,15.833 L15.863,10.173 C15.863,7.615 15.406,5 12.014,5" id="Fill-58"></path>
                    </g>
                </g>
            </g>
        </g>
    </g>
</svg>