<?xml version="1.0" encoding="UTF-8"?>
<svg width="82px" height="81px" viewBox="0 0 82 81" version="1.1" xmlns="http://www.w3.org/2000/svg" xmlns:xlink="http://www.w3.org/1999/xlink">
    <!-- Generator: sketchtool 46.2 (44496) - http://www.bohemiancoding.com/sketch -->
    <title>8736DE77-BF4C-4449-91FC-C10AB1D49B36</title>
    <desc>Created with sketchtool.</desc>
    <defs>
        <filter x="-1.4%" y="-28.1%" width="102.8%" height="156.2%" filterUnits="objectBoundingBox" id="filter-1">
            <feOffset dx="0" dy="0" in="SourceAlpha" result="shadowOffsetOuter1"></feOffset>
            <feGaussianBlur stdDeviation="7.5" in="shadowOffsetOuter1" result="shadowBlurOuter1"></feGaussianBlur>
            <feColorMatrix values="0 0 0 0 0   0 0 0 0 0   0 0 0 0 0  0 0 0 0.1 0" type="matrix" in="shadowBlurOuter1" result="shadowMatrixOuter1"></feColorMatrix>
            <feMerge>
                <feMergeNode in="shadowMatrixOuter1"></feMergeNode>
                <feMergeNode in="SourceGraphic"></feMergeNode>
            </feMerge>
        </filter>
    </defs>
    <g id="UI_web" stroke="none" stroke-width="1" fill="none" fill-rule="evenodd">
        <g id="Jewelry-case-landing" transform="translate(-1443.000000, 0.000000)">
            <g id="Top-menu">
                <g id="Header" filter="url(#filter-1)">
                    <g id="Menu-icon" transform="translate(1458.000000, 14.000000)">
                        <path d="M0,52 L52,52 L52,0 L0,0 L0,52 Z M0.285,51.714 L51.715,51.714 L51.715,0.284 L0.285,0.284 L0.285,51.714 Z" id="Fill-47" fill="#E3E4E4"></path>
                        <path d="M38.295,28 L13.5,28 C12.675,28 12,27.325 12,26.5 C12,25.675 12.675,25 13.5,25 L38.295,25 C39.12,25 39.795,25.675 39.795,26.5 C39.795,27.325 39.12,28 38.295,28" id="Fill-67" fill="#E65B47"></path>
                        <path d="M33.5,18 L13.5,18 C12.675,18 12,17.325 12,16.5 C12,15.675 12.675,15 13.5,15 L33.5,15 C34.325,15 35,15.675 35,16.5 C35,17.325 34.325,18 33.5,18" id="Fill-68" fill="#E65B47"></path>
                        <path d="M33.5,38 L13.5,38 C12.675,38 12,37.325 12,36.5 C12,35.675 12.675,35 13.5,35 L33.5,35 C34.325,35 35,35.675 35,36.5 C35,37.325 34.325,38 33.5,38" id="Fill-69" fill="#E65B47"></path>
                    </g>
                </g>
            </g>
        </g>
    </g>
</svg>