<?xml version="1.0" encoding="UTF-8"?>
<svg width="32px" height="32px" viewBox="0 0 32 32" version="1.1" xmlns="http://www.w3.org/2000/svg" xmlns:xlink="http://www.w3.org/1999/xlink">
    <!-- Generator: Sketch 47 (45396) - http://www.bohemiancoding.com/sketch -->
    <title>icon-13</title>
    <desc>Created with Sketch.</desc>
    <defs></defs>
    <g id="Landing-Pages" stroke="none" stroke-width="1" fill="none" fill-rule="evenodd" stroke-linecap="round" stroke-linejoin="round">
        <g id="IB-Lander2" transform="translate(-1103.000000, -3467.000000)" stroke="#D7559F" stroke-width="2">
            <g id="Section" transform="translate(0.000000, 2543.000000)">
                <g id="Block-1" transform="translate(140.000000, 809.000000)">
                    <g id="Card" transform="translate(800.000000, 77.000000)">
                        <g id="icon-13" transform="translate(164.000000, 39.000000)">
                            <path d="M15,15 L15,15 C12.737,15 10.859,13.134 10.698,10.725 L10.511,7.931 C10.333,5.266 12.31,3 14.813,3 L15.187,3 C17.689,3 19.667,5.266 19.489,7.931 L19.302,10.725 C19.141,13.134 17.263,15 15,15 Z" id="Stroke-1"></path>
                            <path d="M5,23.9995 L5.23,22.8235 C5.781,20.0185 8.195,17.9995 10.999,17.9995 L19.001,17.9995 C21.806,17.9995 24.22,20.0185 24.77,22.8235 L25,23.9985" id="Stroke-3"></path>
                            <path d="M30,22 C30,23.104 29.104,24 28,24 L2,24 C0.896,24 0,23.104 0,22 L0,2 C0,0.896 0.896,0 2,0 L28,0 C29.104,0 30,0.896 30,2 L30,22 Z" id="Stroke-5"></path>
                            <path d="M5,30 L25,30" id="Stroke-7"></path>
                            <polygon id="Stroke-9" points="21 30 9 30 10 24 20 24"></polygon>
                        </g>
                    </g>
                </g>
            </g>
        </g>
    </g>
</svg>