<?xml version="1.0" encoding="UTF-8"?>
<svg width="43px" height="42px" viewBox="0 0 43 42" version="1.1" xmlns="http://www.w3.org/2000/svg" xmlns:xlink="http://www.w3.org/1999/xlink">
    <!-- Generator: sketchtool 46.2 (44496) - http://www.bohemiancoding.com/sketch -->
    <title>84648A54-1899-458A-AB68-F06825C514C7</title>
    <desc>Created with sketchtool.</desc>
    <defs>
        <filter x="-1.4%" y="-28.1%" width="102.8%" height="156.2%" filterUnits="objectBoundingBox" id="filter-1">
            <feOffset dx="0" dy="0" in="SourceAlpha" result="shadowOffsetOuter1"></feOffset>
            <feGaussianBlur stdDeviation="7.5" in="shadowOffsetOuter1" result="shadowBlurOuter1"></feGaussianBlur>
            <feColorMatrix values="0 0 0 0 0   0 0 0 0 0   0 0 0 0 0  0 0 0 0.1 0" type="matrix" in="shadowBlurOuter1" result="shadowMatrixOuter1"></feColorMatrix>
            <feMerge>
                <feMergeNode in="shadowMatrixOuter1"></feMergeNode>
                <feMergeNode in="SourceGraphic"></feMergeNode>
            </feMerge>
        </filter>
    </defs>
    <g id="UI_web" stroke="none" stroke-width="1" fill="none" fill-rule="evenodd">
        <g id="Jewelry-case-landing" transform="translate(-1402.000000, -20.000000)" fill="#B2B2B2">
            <g id="Top-menu">
                <g id="Header" filter="url(#filter-1)">
                    <path d="M1430.66024,35.512 C1430.42524,35.623 1430.18224,35.718 1429.93424,35.794 C1430.22724,35.44 1430.45124,35.024 1430.58824,34.569 C1430.61824,34.467 1430.58724,34.355 1430.50824,34.288 C1430.43024,34.222 1430.32024,34.214 1430.23424,34.268 C1429.70824,34.601 1429.14024,34.84 1428.54624,34.98 C1427.94724,34.355 1427.13424,34 1426.29224,34 C1424.51624,34 1423.07224,35.541 1423.07224,37.435 C1423.07224,37.584 1423.08124,37.732 1423.09824,37.878 C1420.89524,37.672 1418.84724,36.517 1417.44024,34.677 C1417.38924,34.611 1417.31224,34.575 1417.23424,34.582 C1417.15524,34.589 1417.08424,34.637 1417.04424,34.71 C1416.75924,35.232 1416.60724,35.829 1416.60724,36.437 C1416.60724,37.264 1416.88524,38.049 1417.37424,38.663 C1417.22524,38.608 1417.08124,38.539 1416.94224,38.458 C1416.86924,38.414 1416.77824,38.414 1416.70524,38.459 C1416.63224,38.505 1416.58624,38.587 1416.58424,38.678 C1416.58324,38.693 1416.58324,38.708 1416.58324,38.723 C1416.58324,39.959 1417.20624,41.071 1418.15924,41.677 C1418.07824,41.668 1417.99624,41.656 1417.91524,41.639 C1417.83124,41.622 1417.74424,41.654 1417.68824,41.721 C1417.63224,41.79 1417.61224,41.885 1417.63924,41.971 C1417.99124,43.146 1418.89924,44.01 1419.99724,44.274 C1419.08724,44.882 1418.04624,45.2 1416.95224,45.2 C1416.72424,45.2 1416.49524,45.186 1416.27024,45.158 C1416.15924,45.144 1416.05324,45.214 1416.01424,45.327 C1415.97624,45.44 1416.01624,45.566 1416.11124,45.632 C1417.51524,46.592 1419.13924,47.099 1420.80724,47.099 C1424.08624,47.099 1426.13724,45.45 1427.27924,44.067 C1428.70524,42.342 1429.52224,40.059 1429.52224,37.803 C1429.52224,37.709 1429.52124,37.614 1429.51824,37.519 C1430.08124,37.067 1430.56524,36.52 1430.95924,35.891 C1431.01924,35.796 1431.01324,35.67 1430.94324,35.582 C1430.87424,35.493 1430.75924,35.465 1430.66024,35.512" id="Fill-52"></path>
                </g>
            </g>
        </g>
    </g>
</svg>