<?xml version="1.0" encoding="UTF-8"?>
<svg width="19px" height="12px" viewBox="0 0 19 12" version="1.1" xmlns="http://www.w3.org/2000/svg" xmlns:xlink="http://www.w3.org/1999/xlink">
    <!-- Generator: sketchtool 46.2 (44496) - http://www.bohemiancoding.com/sketch -->
    <title>8C11245A-D2D3-4A77-9BF0-00B89295FC2F</title>
    <desc>Created with sketchtool.</desc>
    <defs></defs>
    <g id="UI_web" stroke="none" stroke-width="1" fill="none" fill-rule="evenodd">
        <g id="Jewelry-case-landing" transform="translate(-117.000000, -5567.000000)" fill-rule="nonzero" fill="#FFFFFF">
            <g id="Group-2" transform="translate(0.000000, 5533.000000)">
                <g id="Group-8" transform="translate(90.000000, 19.000000)">
                    <g id="Group-24">
                        <path d="M33.2926339,26.858106 C33.3917401,26.7579089 33.4474277,26.6219375 33.4474277,26.480149 C33.4474277,26.3383605 33.3917401,26.202389 33.2926339,26.1021919 L28.7822492,21.5364703 L45.3999802,21.5364703 C45.6039563,21.5650348 45.8057149,21.4708857 45.9167349,21.2953306 C46.027755,21.1197754 46.027755,20.8948854 45.9167349,20.7193302 C45.8057149,20.5437751 45.6039563,20.4496259 45.3999802,20.4781905 L28.7822492,20.4781905 L33.2926339,15.9124689 C33.4988437,15.7037289 33.4988436,15.3652948 33.2926337,15.1565549 C33.0864238,14.9478151 32.7520915,14.947815 32.5458815,15.1565547 L27.1593072,20.6293733 C27.0597547,20.7275868 27.0025068,20.8615969 27,21.002291 C27.0014081,21.1432234 27.0588306,21.2776423 27.1593072,21.3752086 L32.5657949,26.8480272 C32.7668008,27.0466952 33.0863275,27.051126 33.2926339,26.858106 Z" id="Shape"></path>
                    </g>
                </g>
            </g>
        </g>
    </g>
</svg>