<?xml version="1.0" encoding="UTF-8"?>
<svg width="148px" height="30px" viewBox="0 0 148 30" version="1.1" xmlns="http://www.w3.org/2000/svg" xmlns:xlink="http://www.w3.org/1999/xlink">
    <!-- Generator: Sketch 47 (45396) - http://www.bohemiancoding.com/sketch -->
    <title>Logo</title>
    <desc>Created with Sketch.</desc>
    <defs></defs>
    <g id="Landing-Pages" stroke="none" stroke-width="1" fill="none" fill-rule="evenodd">
        <g id="IB-Lander-2-Mobile" transform="translate(-111.000000, -30.000000)" fill="#FFFFFF">
            <g id="Hero">
                <g id="Logo" transform="translate(111.000000, 30.000000)">
                    <path d="M91.6266901,15.4435949 L93.1672968,11.6146941 L94.6890294,15.4435949 L91.6266901,15.4435949 Z M91.3742476,7.17143174 L85.5633526,20.7308289 L89.5395179,20.7308289 L90.514685,18.326906 L95.779801,18.326906 L96.7738423,20.7308289 L100.82865,20.7308289 L95.0185415,7.17143174 L91.3742476,7.17143174 Z M115.76994,20.7308289 L119.572306,20.7308289 L119.572306,7.26839539 L115.76994,7.26839539 L115.76994,20.7308289 Z M110.780073,14.018617 C110.780073,15.1092642 110.434046,15.9478059 109.741206,16.5373449 C109.051511,17.1261082 108.136898,17.4239805 107.00366,17.4239805 L105.454402,17.4239805 L105.454402,10.5767952 L107.00366,10.5767952 C108.136898,10.5767952 109.051511,10.8746676 109.741206,11.4711879 C110.434046,12.0661569 110.780073,12.9039229 110.780073,13.9782801 L110.780073,14.018617 Z M112.621881,9.13242465 C111.965216,8.54366135 111.158344,8.08676862 110.205196,7.75786791 C109.248117,7.43207004 108.158132,7.2691711 106.9376,7.2691711 L101.673271,7.2691711 L101.673271,20.7308289 L106.860531,20.7308289 C108.081849,20.7308289 109.175766,20.5617243 110.143855,20.2211879 C111.113517,19.882203 111.92904,19.4105718 112.592783,18.80707 C113.255739,18.2058954 113.760624,17.4906915 114.113729,16.6645612 C114.465261,15.8368794 114.639848,14.936281 114.639848,13.9612145 L114.639848,13.9232048 C114.639848,12.948914 114.468407,12.0545213 114.124739,11.2400266 C113.778712,10.4247562 113.280119,9.72429078 112.621881,9.13242465 L112.621881,9.13242465 Z M141.718823,12.8651374 L141.718823,15.5948582 L144.411542,15.5948582 L144.411542,17.2292775 C143.838238,17.6023936 143.107649,17.7901152 142.220562,17.7901152 C141.672424,17.7901152 141.171471,17.694703 140.724781,17.5093085 C140.272587,17.323914 139.880947,17.0694814 139.550649,16.7405807 C139.217991,16.4140071 138.959257,16.0199468 138.776807,15.5583998 C138.595142,15.0968528 138.501558,14.5941933 138.501558,14.0574025 L138.501558,14.018617 C138.501558,13.5066489 138.595142,13.0264849 138.776807,12.578125 C138.956898,12.1289894 139.203049,11.7372562 139.516046,11.4029255 C139.829043,11.070922 140.197877,10.8071809 140.620973,10.6163564 C141.040924,10.4216534 141.498624,10.3262411 141.994072,10.3262411 C142.669611,10.3262411 143.263362,10.4348404 143.776111,10.6535904 C144.292792,10.870789 144.793745,11.185727 145.286833,11.5960771 L147.510057,8.96176862 C146.782614,8.34663121 145.979674,7.86491578 145.101237,7.52050089 C144.225946,7.17143174 143.180001,7 141.973625,7 C140.922174,7 139.941502,7.18074025 139.041045,7.53756649 C138.139016,7.89827128 137.365173,8.39239805 136.719518,9.02847961 C136.073077,9.66145833 135.562687,10.4053635 135.19464,11.2586436 C134.826593,12.1119238 134.644143,13.0264849 134.644143,14 L134.644143,14.0387855 C134.644143,15.0650488 134.828953,16.0028812 135.209582,16.8546099 C135.583134,17.7078901 136.10532,18.4424867 136.768277,19.0576241 C137.428874,19.6735372 138.214513,20.1505984 139.116542,20.4895833 C140.020145,20.829344 141.005535,21 142.071928,21 C143.318411,21 144.437494,20.799867 145.426031,20.405031 C146.411421,20.0063165 147.269411,19.5129654 148,18.9210993 L148,12.8651374 L141.718823,12.8651374 Z M129.96334,14.3847518 L124.337255,7.2691711 L120.799915,7.2691711 L120.799915,20.7308289 L124.525997,20.7308289 L124.525997,13.3468528 L130.36599,20.7308289 L133.687063,20.7308289 L133.687063,7.2691711 L129.96334,7.2691711 L129.96334,14.3847518 Z M80.7881794,12.1344193 C80.7881794,12.6200133 80.6096609,13.0094193 80.2604882,13.2979832 C79.9089562,13.5857713 79.407217,13.7300532 78.7592027,13.7300532 L76.262303,13.7300532 L76.262303,10.4992243 L78.7387556,10.4992243 C79.3749735,10.4992243 79.8767127,10.6310949 80.2392547,10.8940603 C80.6033695,11.1570257 80.7881794,11.5572917 80.7881794,12.0964096 L80.7881794,12.1344193 Z M83.8284988,14.480164 C84.3341702,13.8014184 84.5866126,12.9419326 84.5866126,11.903258 L84.5866126,11.8644725 C84.5866126,10.5457668 84.1847494,9.4985594 83.3794501,8.72983156 C82.92411,8.26906028 82.3335047,7.90913121 81.6052751,7.65314716 C80.8778319,7.39716312 79.9875987,7.2691711 78.9330026,7.2691711 L72.4811712,7.2691711 L72.4811712,20.7308289 L76.262303,20.7308289 L76.262303,16.6537012 L77.9200871,16.6537012 L80.6686428,20.7308289 L85.0372342,20.7308289 L81.7806479,16.0385638 C82.6386377,15.6801862 83.3204682,15.1612367 83.8284988,14.480164 L83.8284988,14.480164 Z M59.5130214,10.5380098 L63.606364,10.5380098 L63.606364,20.7308289 L67.3890687,20.7308289 L67.3890687,10.5380098 L71.4831977,10.5380098 L71.4831977,7.2691711 L59.5130214,7.2691711 L59.5130214,10.5380098 Z M51.2555579,12.4811613 L47.9973987,7.2691711 L44,7.2691711 L44,20.7308289 L47.7245092,20.7308289 L47.7245092,13.0373449 L51.1855661,18.2687278 L51.2634222,18.2687278 L54.744926,12.9993351 L54.744926,20.7308289 L58.5071837,20.7308289 L58.5071837,7.2691711 L54.5105714,7.2691711 L51.2555579,12.4811613 Z" id="Fill-1"></path>
                    <polygon id="Fill-3" points="26 24 26 15 18 19.4987848"></polygon>
                    <g id="Group-7">
                        <path d="M34.8828128,1.08323684 C34.8828128,0.600868421 34.4907702,0.209289474 34.0097702,0.209289474 C33.8538979,0.209289474 33.709834,0.247973684 33.5838766,0.319026316 L33.5838766,0.318236842 L26.164983,4.61455263 L17.446366,9.66086842 L17.4479404,9.66481579 L17.443217,9.66086842 L17.4377064,9.66481579 L17.4400681,9.66086842 L8.72066383,4.61455263 L1.30098298,0.318236842 L1.30098298,0.319026316 C1.1766,0.247973684 1.03174894,0.209289474 0.87666383,0.209289474 C0.394089362,0.209289474 0.00283404255,0.600868421 0.00283404255,1.08323684 L-0.000314893617,9.66086842 L-0.000314893617,19.7582368 L0.00283404255,28.3358684 C0.00283404255,28.8190263 0.394089362,29.2106053 0.87666383,29.2106053 C1.03174894,29.2106053 1.1766,29.1695526 1.30098298,29.0992895 L1.30098298,29.1024474 L8.14834468,25.1400789 L8.14834468,14.7119211 C8.14834468,14.5082368 8.25855745,14.3163947 8.43568511,14.2145526 C8.61281277,14.1127105 8.83008936,14.1127105 9.00721702,14.2145526 L17.443217,19.0990263 L25.8784298,14.2145526 C26.0555574,14.1127105 26.272834,14.1127105 26.4499617,14.2145526 C26.6278766,14.3163947 26.7357277,14.5082368 26.7357277,14.7119211 L26.7357277,25.1400789 L33.5838766,29.1024474 L33.5838766,29.0992895 C33.709834,29.1695526 33.8538979,29.2106053 34.0097702,29.2106053 C34.4907702,29.2106053 34.8828128,28.8190263 34.8828128,28.3358684 L34.8859617,19.7582368 L34.8859617,9.66086842 L34.8828128,1.08323684 Z" id="Fill-5"></path>
                    </g>
                    <polygon id="Fill-8" points="9 24 17 19.4987848 9 15"></polygon>
                </g>
            </g>
        </g>
    </g>
</svg>