<?xml version="1.0" encoding="UTF-8"?>
<svg width="32px" height="32px" viewBox="0 0 32 32" version="1.1" xmlns="http://www.w3.org/2000/svg" xmlns:xlink="http://www.w3.org/1999/xlink">
    <!-- Generator: Sketch 47 (45396) - http://www.bohemiancoding.com/sketch -->
    <title>icon-41</title>
    <desc>Created with Sketch.</desc>
    <defs></defs>
    <g id="Landing-Pages" stroke="none" stroke-width="1" fill="none" fill-rule="evenodd" stroke-linecap="round" stroke-linejoin="round">
        <g id="IB-Lander2" transform="translate(-1104.000000, -3100.000000)" stroke="#D7559F" stroke-width="2">
            <g id="Section" transform="translate(0.000000, 2543.000000)">
                <g id="Block-1" transform="translate(140.000000, 441.000000)">
                    <g id="Card" transform="translate(800.000000, 77.000000)">
                        <g id="icon-41" transform="translate(165.000000, 40.000000)">
                            <path d="M30,22 C30,23.104 29.104,24 28,24 L2,24 C0.896,24 0,23.104 0,22 L0,2 C0,0.896 0.896,0 2,0 L28,0 C29.104,0 30,0.896 30,2 L30,22 Z" id="Stroke-1"></path>
                            <path d="M5,30 L25,30" id="Stroke-3"></path>
                            <polygon id="Stroke-5" points="21 30 9 30 10 24 20 24"></polygon>
                            <path d="M0,18 L30,18" id="Stroke-7"></path>
                        </g>
                    </g>
                </g>
            </g>
        </g>
    </g>
</svg>